<svg width="1920" height="543" viewBox="0 0 1920 543" fill="none" xmlns="http://www.w3.org/2000/svg">
<path d="M-69 445.001C466 571.501 796 386.222 796 144.502C796 -37.011 541 -59.4855 595.5 164.514C650 388.514 971 508.502 1162.5 497.502C1354 486.502 1524.63 345.485 1577 212.502C1634.5 66.5018 1407 63.0018 1441 212.502C1473.16 353.893 1843.67 497.85 1989.5 541.516" stroke="#2E3033" stroke-width="3"/>
<path d="M1595.53 343.047L1596.54 343.692L1592.59 349.896L1596.42 352.34L1595.86 353.22L1591.01 350.132L1595.53 343.047ZM1601.54 346.875L1602.55 347.52L1598.04 354.605L1597.02 353.96L1601.54 346.875ZM1610.76 352.752L1606.25 359.837L1605.42 359.308L1604.53 351.317L1601.17 356.6L1600.16 355.956L1604.67 348.871L1605.5 349.4L1606.38 357.391L1609.75 352.107L1610.76 352.752ZM1614.07 363.582L1613.51 364.463L1608.37 361.188L1612.88 354.103L1617.88 357.288L1617.32 358.168L1613.33 355.628L1611.95 357.804L1615.5 360.067L1614.95 360.928L1611.4 358.665L1609.94 360.952L1614.07 363.582ZM1619.66 358.422L1622.65 360.324C1623.4 360.801 1623.97 361.373 1624.36 362.039C1624.75 362.706 1624.93 363.41 1624.91 364.152C1624.89 364.891 1624.66 365.608 1624.22 366.303C1623.78 366.998 1623.22 367.513 1622.55 367.846C1621.9 368.177 1621.18 368.306 1620.41 368.233C1619.64 368.161 1618.88 367.886 1618.14 367.409L1615.15 365.507L1619.66 358.422ZM1618.64 366.489C1619.21 366.855 1619.78 367.064 1620.36 367.116C1620.94 367.173 1621.47 367.077 1621.96 366.83C1622.46 366.575 1622.87 366.185 1623.21 365.659C1623.54 365.132 1623.72 364.595 1623.74 364.046C1623.76 363.491 1623.62 362.962 1623.32 362.46C1623.03 361.963 1622.6 361.531 1622.03 361.166L1620.11 359.947L1616.72 365.271L1618.64 366.489ZM1629.21 373.228L1628.65 374.108L1623.51 370.833L1628.02 363.749L1633.02 366.933L1632.46 367.814L1628.48 365.274L1627.09 367.45L1630.64 369.713L1630.09 370.573L1626.54 368.31L1625.08 370.597L1629.21 373.228ZM1640.9 371.949L1636.39 379.033L1635.56 378.505L1634.67 370.514L1631.3 375.797L1630.29 375.152L1634.81 368.068L1635.64 368.596L1636.52 376.587L1639.89 371.304L1640.9 371.949ZM1643.86 375.076L1641.44 373.529L1642 372.648L1647.86 376.381L1647.3 377.262L1644.87 375.715L1640.91 381.919L1639.91 381.28L1643.86 375.076Z" fill="#2E3033"/>
<path d="M286.776 504.032L287.251 512.419L286.268 512.475L280.882 506.506L281.236 512.76L280.038 512.828L279.563 504.441L280.546 504.385L285.932 510.354L285.578 504.1L286.776 504.032ZM295.788 510.89L295.847 511.932L289.761 512.277L289.286 503.89L295.204 503.555L295.263 504.597L290.543 504.865L290.689 507.441L294.894 507.202L294.952 508.221L290.747 508.459L290.9 511.167L295.788 510.89ZM309.044 502.771L306.716 511.316L305.458 511.388L302.79 504.82L300.881 511.647L299.599 511.719L296.32 503.492L297.554 503.422L300.205 510.111L302.179 503.16L303.281 503.097L305.982 509.819L307.906 502.835L309.044 502.771Z" fill="#2E3033"/>
<path d="M1029.72 509.962C1029.1 509.876 1028.5 509.697 1027.94 509.426C1027.39 509.148 1026.97 508.831 1026.68 508.476L1027.25 507.61C1027.53 507.939 1027.9 508.228 1028.37 508.479C1028.84 508.722 1029.34 508.88 1029.86 508.952C1030.55 509.047 1031.08 509.003 1031.46 508.821C1031.83 508.63 1032.04 508.34 1032.1 507.952C1032.14 507.667 1032.07 507.424 1031.91 507.223C1031.75 507.016 1031.54 506.845 1031.27 506.712C1031.02 506.58 1030.65 506.42 1030.17 506.232C1029.56 505.995 1029.07 505.774 1028.71 505.57C1028.35 505.367 1028.05 505.091 1027.82 504.744C1027.59 504.39 1027.51 503.947 1027.59 503.416C1027.65 502.973 1027.82 502.588 1028.1 502.263C1028.38 501.94 1028.78 501.704 1029.29 501.555C1029.79 501.407 1030.4 501.382 1031.1 501.479C1031.59 501.547 1032.07 501.677 1032.52 501.869C1032.98 502.062 1033.37 502.301 1033.67 502.585L1033.15 503.482C1032.83 503.212 1032.48 502.994 1032.1 502.829C1031.72 502.655 1031.34 502.542 1030.96 502.489C1030.29 502.396 1029.76 502.449 1029.39 502.648C1029.02 502.847 1028.81 503.141 1028.76 503.53C1028.72 503.815 1028.78 504.062 1028.95 504.27C1029.11 504.471 1029.33 504.642 1029.59 504.783C1029.86 504.918 1030.23 505.074 1030.7 505.252C1031.31 505.489 1031.79 505.709 1032.15 505.912C1032.51 506.115 1032.8 506.39 1033.03 506.736C1033.26 507.083 1033.34 507.519 1033.27 508.042C1033.21 508.477 1033.04 508.861 1032.75 509.193C1032.46 509.517 1032.06 509.752 1031.55 509.899C1031.04 510.039 1030.43 510.06 1029.72 509.962ZM1042.41 511.617L1043.23 505.553L1039.53 510.19L1038.98 510.115L1036.67 504.683L1035.84 510.71L1034.69 510.552L1035.84 502.231L1036.82 502.366L1039.48 508.693L1043.71 503.318L1044.69 503.452L1043.55 511.775L1042.41 511.617ZM1047.2 503.799L1048.39 503.963L1047.24 512.284L1046.05 512.12L1047.2 503.799ZM1050.88 504.307L1052.07 504.471L1051.06 511.758L1055.56 512.38L1055.42 513.415L1049.73 512.628L1050.88 504.307ZM1062.97 513.403L1062.82 514.437L1056.79 513.603L1057.93 505.282L1063.81 506.093L1063.66 507.127L1058.98 506.48L1058.63 509.036L1062.8 509.612L1062.66 510.623L1058.49 510.047L1058.12 512.733L1062.97 513.403Z" fill="#2E3033"/>
</svg>
