<svg width="924" height="371" viewBox="0 0 924 371" fill="none" xmlns="http://www.w3.org/2000/svg">
<path d="M921.162 220.507C921.602 220.6 922.035 220.318 922.128 219.878L923.642 212.7C923.735 212.26 923.454 211.827 923.013 211.734C922.573 211.642 922.14 211.923 922.047 212.364L920.701 218.744L914.321 217.397C913.88 217.304 913.448 217.586 913.355 218.026C913.262 218.467 913.544 218.899 913.984 218.992L921.162 220.507ZM320.525 258.504L321.328 258.646L320.525 258.504ZM499.467 258.515L498.663 258.644L498.663 258.644L499.467 258.515ZM6.03933 259.052C6.3527 259.376 6.86872 259.383 7.19189 259.07L12.4583 253.963C12.7815 253.65 12.7894 253.134 12.476 252.811C12.1627 252.488 11.6467 252.48 11.3235 252.793L6.64224 257.332L2.103 252.651C1.78963 252.328 1.27362 252.32 0.950444 252.633C0.627271 252.947 0.619324 253.463 0.932692 253.786L6.03933 259.052ZM922.013 219.265C870.411 140.055 808.625 93.3925 744.53 70.3539C680.442 47.3179 614.101 47.9202 553.408 63.1451C492.72 78.3689 437.654 108.219 396.09 143.716C354.544 179.198 326.403 220.399 319.722 258.363L321.328 258.646C327.917 221.201 355.753 180.31 397.149 144.956C438.527 109.617 493.367 79.8872 553.805 64.7263C614.239 49.5663 680.244 48.9791 743.979 71.888C807.706 94.7942 869.219 141.211 920.647 220.154L922.013 219.265ZM319.722 258.363C312.941 296.902 322.231 325.357 339.749 344.033C357.248 362.689 382.859 371.483 408.541 370.911C434.222 370.34 460.057 360.402 478.029 341.485C496.021 322.547 506.072 294.674 500.272 258.386L498.663 258.644C504.389 294.472 494.461 321.823 476.847 340.362C459.213 358.923 433.812 368.718 408.504 369.281C383.196 369.845 358.063 361.176 340.938 342.918C323.832 324.681 314.619 296.773 321.328 258.646L319.722 258.363ZM500.272 258.386C472.535 84.8281 350.309 -0.234766 234.238 0.692191C176.217 1.15556 119.752 23.1113 77.4669 66.2217C35.1769 109.337 7.11731 173.56 5.8095 258.472L7.43947 258.498C8.74175 173.944 36.6728 110.14 78.6307 67.3632C120.593 24.5823 176.634 2.78243 234.251 2.3223C349.457 1.40225 471.042 85.8209 498.663 258.644L500.272 258.386Z" fill="#2E3033"/>
</svg>
