<svg width="101" height="106" viewBox="0 0 101 106" fill="none" xmlns="http://www.w3.org/2000/svg">
<rect x="100" y="104.072" width="99" height="103" transform="rotate(180 100 104.072)" stroke="#B9B1A6" stroke-opacity="0.5" stroke-width="2"/>
<path d="M38.5 33.058C40.1606 34.2564 43.8087 34.7004 50.4547 31.4126M50.4547 31.4126C53.7631 29.7688 54.6028 28.9483 57.9146 26.4835C64.0341 21.929 69.3215 18.9421 73.6999 19.0766C80.3394 19.0851 82 25.1389 82 33.058C82 50.3186 78.4415 69.2231 69.5453 81.5521C65.3937 87.3057 62.9028 88.1276 57.0908 80.7262C53.0357 75.562 50.7739 76.3775 47.9574 79.0823C45.1772 81.7522 43.1167 86.4257 40.6419 86.0174C33.9994 84.9215 20.2734 64.2787 19.0529 35.8816C17.6054 2.2043 46.2996 31.4127 50.4547 31.4126Z" stroke="#B9B1A6" stroke-width="2" stroke-linecap="round"/>
<path d="M60.6425 12.2969C61.9443 19.0766 67.836 23.644 73.8022 22.4985C67.836 23.644 64.0548 30.0686 65.3566 36.8484C64.0548 30.0686 58.163 25.5013 52.1969 26.6469C58.163 25.5013 61.9443 19.0766 60.6425 12.2969Z" fill="white" stroke="#B9B1A6" stroke-width="2" stroke-linecap="round" stroke-linejoin="round"/>
<path d="M79.3233 31.036C78.6571 34.8441 80.763 38.3942 84.0272 38.9653C80.763 38.3942 77.5769 41.0183 76.9106 44.8265C77.5769 41.0183 75.4709 37.4683 72.2067 36.8972C75.4709 37.4683 78.6571 34.8441 79.3233 31.036Z" fill="white" stroke="#B9B1A6" stroke-width="2" stroke-linecap="round" stroke-linejoin="round"/>
</svg>
