<svg width="101" height="106" viewBox="0 0 101 106" fill="none" xmlns="http://www.w3.org/2000/svg">
<g clip-path="url(#clip0_4023_15397)">
<path d="M106.909 80.7262C101.097 88.1276 98.6063 87.3057 94.4547 81.5521C85.5585 69.2231 82 50.3186 82 33.058C82 25.1389 83.6606 19.0851 90.3001 19.0766C94.6785 18.9421 99.9659 21.929 106.085 26.4835C109.397 28.9483 110.237 29.7688 113.545 31.4126C117.7 31.4127 146.395 2.2043 144.947 35.8816C143.727 64.2787 130.001 84.9214 123.358 86.0174C120.883 86.4257 118.823 81.7522 116.043 79.0823C113.226 76.3775 110.964 75.562 106.909 80.7262Z" fill="white"/>
<path d="M125.5 33.058C123.839 34.2564 120.191 34.7004 113.545 31.4126M113.545 31.4126C110.237 29.7688 109.397 28.9483 106.085 26.4835C99.9659 21.929 94.6785 18.9421 90.3001 19.0766C83.6606 19.0851 82 25.1389 82 33.058C82 50.3186 85.5585 69.2231 94.4547 81.5521C98.6063 87.3057 101.097 88.1276 106.909 80.7262C110.964 75.562 113.226 76.3775 116.043 79.0823C118.823 81.7522 120.883 86.4257 123.358 86.0174C130.001 84.9215 143.727 64.2787 144.947 35.8816C146.395 2.2043 117.7 31.4127 113.545 31.4126Z" stroke="#B9B1A6" stroke-width="2" stroke-linecap="round"/>
<path d="M-24.5 33.058C-22.8394 34.2564 -19.1913 34.7004 -12.5453 31.4126M-12.5453 31.4126C-9.23694 29.7688 -8.39724 28.9483 -5.08537 26.4835C1.03411 21.929 6.32152 18.9421 10.6999 19.0766C17.3394 19.0851 19 25.1389 19 33.058C19 50.3186 15.4415 69.2231 6.54531 81.5521C2.39374 87.3057 -0.097198 88.1276 -5.90916 80.7262C-9.9643 75.562 -12.2261 76.3775 -15.0426 79.0823C-17.8228 81.7522 -19.8833 86.4257 -22.3581 86.0174C-29.0006 84.9215 -42.7266 64.2787 -43.9471 35.8816C-45.3946 2.2043 -16.7004 31.4127 -12.5453 31.4126Z" stroke="#B9B1A6" stroke-width="2" stroke-linecap="round"/>
<path d="M43.8685 -21.6109C45.2818 -20.129 48.7871 -19.0251 55.9225 -21.0417M55.9225 -21.0417C59.4757 -22.0526 60.4513 -22.7056 64.1582 -24.5231C71.0075 -27.8812 76.7521 -29.8505 81.032 -28.9174C87.5579 -27.6945 88.0831 -21.439 86.6345 -13.6536C83.477 3.31579 76.5204 21.2504 65.519 31.744C60.385 36.641 57.7858 36.9934 53.4258 28.6537C50.3838 22.8349 48.011 23.2229 44.7472 25.3668C41.5255 27.4831 38.6448 31.7008 36.2865 30.8467C29.9566 28.5541 20.2383 5.74882 24.233 -22.3924C28.9704 -55.7662 51.8375 -21.8017 55.9225 -21.0417Z" stroke="#B9B1A6" stroke-width="2" stroke-linecap="round"/>
<path d="M8.31638 56.0723H0C-1.65685 56.0723 -3 57.4154 -3 59.0723V120.003C-3 121.214 -2.27268 122.306 -1.15575 122.772L47.9453 143.27C48.3115 143.423 48.7043 143.502 49.1011 143.502H55.9946C56.647 143.502 57.2817 143.289 57.8024 142.896L104.748 107.447C105.532 106.855 105.977 105.916 105.938 104.934L104.114 58.9534C104.05 57.344 102.727 56.0723 101.117 56.0723H92.6836C83.5011 56.0723 75.3835 62.0382 72.6416 70.8018L71.4964 74.4624C65.0593 95.037 35.9407 95.037 29.5036 74.4624L28.3584 70.8018C25.6165 62.0382 17.4989 56.0723 8.31638 56.0723Z" fill="white" stroke="#B9B1A6" stroke-width="2" stroke-linecap="round"/>
</g>
<rect x="100" y="104.072" width="99" height="103" transform="rotate(180 100 104.072)" stroke="#B9B1A6" stroke-opacity="0.5" stroke-width="2"/>
<defs>
<clipPath id="clip0_4023_15397">
<rect x="101" y="105.072" width="101" height="105" transform="rotate(180 101 105.072)" fill="white"/>
</clipPath>
</defs>
</svg>
