<svg width="101" height="106" viewBox="0 0 101 106" fill="none" xmlns="http://www.w3.org/2000/svg">
<g clip-path="url(#clip0_4023_15569)">
<rect x="101" y="105.072" width="101" height="105" transform="rotate(180 101 105.072)" fill="white"/>
<path d="M106.909 80.7262C101.097 88.1276 98.6063 87.3057 94.4547 81.5521C85.5585 69.2231 82 50.3186 82 33.058C82 25.1389 83.6606 19.0851 90.3001 19.0766C94.6785 18.9421 99.9659 21.929 106.085 26.4835C109.397 28.9483 110.237 29.7688 113.545 31.4126C117.7 31.4127 146.395 2.2043 144.947 35.8816C143.727 64.2787 130.001 84.9214 123.358 86.0174C120.883 86.4257 118.823 81.7522 116.043 79.0823C113.226 76.3775 110.964 75.562 106.909 80.7262Z" fill="white"/>
<path d="M125.5 33.058C123.839 34.2564 120.191 34.7004 113.545 31.4126M113.545 31.4126C110.237 29.7688 109.397 28.9483 106.085 26.4835C99.9659 21.929 94.6785 18.9421 90.3001 19.0766C83.6606 19.0851 82 25.1389 82 33.058C82 50.3186 85.5585 69.2231 94.4547 81.5521C98.6063 87.3057 101.097 88.1276 106.909 80.7262C110.964 75.562 113.226 76.3775 116.043 79.0823C118.823 81.7522 120.883 86.4257 123.358 86.0174C130.001 84.9215 143.727 64.2787 144.947 35.8816C146.395 2.2043 117.7 31.4127 113.545 31.4126Z" stroke="#B9B1A6" stroke-width="2" stroke-linecap="round"/>
<path d="M-5.90916 80.7262C-0.0971985 88.1276 2.39374 87.3057 6.54531 81.5521C15.4415 69.2231 19 50.3186 19 33.058C19 25.1389 17.3394 19.0851 10.6999 19.0766C6.32152 18.9421 1.03411 21.929 -5.08537 26.4835C-8.39724 28.9483 -9.23693 29.7688 -12.5453 31.4126C-16.7004 31.4127 -45.3946 2.2043 -43.9471 35.8816C-42.7266 64.2787 -29.0006 84.9214 -22.3581 86.0174C-19.8833 86.4257 -17.8228 81.7522 -15.0426 79.0823C-12.2261 76.3775 -9.9643 75.562 -5.90916 80.7262Z" fill="white"/>
<path d="M-24.5 33.058C-22.8394 34.2564 -19.1913 34.7004 -12.5453 31.4126M-12.5453 31.4126C-9.23694 29.7688 -8.39724 28.9483 -5.08537 26.4835C1.03411 21.929 6.32152 18.9421 10.6999 19.0766C17.3394 19.0851 19 25.1389 19 33.058C19 50.3186 15.4415 69.2231 6.54531 81.5521C2.39374 87.3057 -0.097198 88.1276 -5.90916 80.7262C-9.9643 75.562 -12.2261 76.3775 -15.0426 79.0823C-17.8228 81.7522 -19.8833 86.4257 -22.3581 86.0174C-29.0006 84.9215 -42.7266 64.2787 -43.9471 35.8816C-45.3946 2.2043 -16.7004 31.4127 -12.5453 31.4126Z" stroke="#B9B1A6" stroke-width="2" stroke-linecap="round"/>
<path d="M39.0852 31.2471C38.6373 30.9239 38.0123 31.025 37.6891 31.4728C37.3659 31.9207 37.467 32.5457 37.9148 32.8689L39.0852 31.2471ZM57.9146 25.4835L58.5117 26.2857L58.5117 26.2857L57.9146 25.4835ZM19.0529 34.8816L18.0538 34.9245L18.0538 34.9245L19.0529 34.8816ZM50.4547 30.4126L50.8981 31.309L50.8997 31.3082L50.4547 30.4126ZM73.6999 18.0766L73.6692 19.0762L73.6839 19.0766L73.6986 19.0766L73.6999 18.0766ZM37.9148 32.8689C40.0501 34.4098 44.1713 34.6367 50.8981 31.309L50.0113 29.5163C43.4462 32.7641 40.2712 32.103 39.0852 31.2471L37.9148 32.8689ZM50.8997 31.3082C54.3072 29.6151 55.2298 28.7282 58.5117 26.2857L57.3176 24.6812C53.9757 27.1685 53.2189 27.9226 50.0098 29.5171L50.8997 31.3082ZM20.052 34.8386C19.6914 26.4497 21.2487 22.4325 23.3809 20.7631C25.4679 19.1292 28.5602 19.4148 32.2722 20.9429C35.9186 22.4439 39.7688 24.9839 43.0293 27.2019C44.6403 28.2978 46.1229 29.3256 47.3253 30.0728C47.9275 30.447 48.4863 30.7679 48.9764 30.998C49.4322 31.212 49.9592 31.4126 50.4547 31.4126L50.4547 29.4126C50.4611 29.4126 50.4126 29.4122 50.2893 29.3742C50.1718 29.338 50.0187 29.278 49.8265 29.1877C49.4404 29.0064 48.9581 28.7327 48.3809 28.374C47.2245 27.6554 45.7949 26.6643 44.1542 25.5482C40.9111 23.342 36.8992 20.6848 33.0335 19.0934C29.2335 17.5291 25.164 16.8271 22.148 19.1883C19.1773 21.5141 17.6907 26.4748 18.0538 34.9245L20.052 34.8386ZM58.5117 26.2857C61.5514 24.0233 64.3474 22.1788 66.9025 20.9185C69.4647 19.6548 71.7108 19.016 73.6692 19.0762L73.7306 17.0771C71.3107 17.0028 68.7238 17.7902 66.0178 19.1249C63.3048 20.463 60.3973 22.3891 57.3176 24.6812L58.5117 26.2857ZM73.6986 19.0766C75.2018 19.0785 76.3577 19.4206 77.2614 19.9951C78.167 20.5708 78.8855 21.422 79.4443 22.546C80.5812 24.8327 81 28.1292 81 32.058H83C83 28.0677 82.5885 24.3777 81.2352 21.6557C80.5489 20.2753 79.6073 19.1165 78.3343 18.3072C77.0593 17.4968 75.5177 17.0789 73.7012 17.0766L73.6986 19.0766ZM23.5272 56.2954C21.6876 49.9107 20.3887 42.6737 20.052 34.8386L18.0538 34.9245C18.3978 42.9263 19.7243 50.3202 21.6054 56.8491L23.5272 56.2954ZM81 32.058C81 40.0893 80.2234 48.4702 78.4933 56.358L80.4469 56.7865C82.2122 48.7382 83 40.2116 83 32.058H81Z" fill="#B9B1A6"/>
<path d="M18.3013 56.4337L-0.23009 57.8592C-1.79308 57.9794 -3 59.2828 -3 60.8504V120.003C-3 121.214 -2.27268 122.306 -1.15575 122.772L47.9453 143.27C48.3115 143.423 48.7043 143.502 49.1011 143.502H55.9946C56.647 143.502 57.2817 143.289 57.8024 142.896L104.745 107.449C105.531 106.856 105.976 105.915 105.935 104.931L104.11 60.727C104.047 59.2116 102.863 57.9813 101.351 57.8604L83.6022 56.4404C80.5703 56.1979 77.5218 56.6169 74.6677 57.6684L73.0265 58.273C58.5029 63.6238 42.5323 63.53 28.0725 58.009L27.4026 57.7533C24.5036 56.6464 21.3953 56.1957 18.3013 56.4337Z" fill="white" stroke="#B9B1A6" stroke-width="2" stroke-linecap="round"/>
<path d="M31 45.0723V45.0723C34.84 46.6723 39.16 46.6723 43 45.0723V45.0723" stroke="#B9B1A6" stroke-width="2" stroke-linecap="round"/>
<path d="M57 45.0723V45.0723C60.84 46.6723 65.16 46.6723 69 45.0723V45.0723" stroke="#B9B1A6" stroke-width="2" stroke-linecap="round"/>
<path d="M48 54.0723V54.0723C49.1046 55.1768 50.8954 55.1768 52 54.0723V54.0723" stroke="#B9B1A6" stroke-width="2" stroke-linecap="round"/>
<path d="M27.84 78.8723V80.2243L10.966 95.2523H28.1V97.0723H7.586V95.7203L24.512 80.6663H7.846V78.8723H27.84ZM51.5295 78.8723V80.2243L34.6555 95.2523H51.7895V97.0723H31.2755V95.7203L48.2015 80.6663H31.5355V78.8723H51.5295ZM75.2189 78.8723V80.2243L58.3449 95.2523H75.4789V97.0723H54.9649V95.7203L71.8909 80.6663H55.2249V78.8723H75.2189ZM80.6564 94.7583C81.7224 94.7583 82.1904 95.2783 82.1904 96.0583C82.1904 96.8383 81.7224 97.3843 80.6564 97.3843C79.5644 97.3843 79.1224 96.8383 79.1224 96.0583C79.1224 95.2783 79.5644 94.7583 80.6564 94.7583ZM87.8419 94.7583C88.9079 94.7583 89.3759 95.2783 89.3759 96.0583C89.3759 96.8383 88.9079 97.3843 87.8419 97.3843C86.7499 97.3843 86.3079 96.8383 86.3079 96.0583C86.3079 95.2783 86.7499 94.7583 87.8419 94.7583ZM95.0275 94.7583C96.0935 94.7583 96.5615 95.2783 96.5615 96.0583C96.5615 96.8383 96.0935 97.3843 95.0275 97.3843C93.9355 97.3843 93.4935 96.8383 93.4935 96.0583C93.4935 95.2783 93.9355 94.7583 95.0275 94.7583Z" fill="#B9B1A6"/>
</g>
<rect x="100" y="104.072" width="99" height="103" transform="rotate(180 100 104.072)" stroke="#B9B1A6" stroke-opacity="0.5" stroke-width="2"/>
<defs>
<clipPath id="clip0_4023_15569">
<rect x="101" y="105.072" width="101" height="105" transform="rotate(180 101 105.072)" fill="white"/>
</clipPath>
</defs>
</svg>
