<svg width="103" height="106" viewBox="0 0 103 106" fill="none" xmlns="http://www.w3.org/2000/svg">
<rect x="100" y="104.072" width="99" height="103" transform="rotate(180 100 104.072)" stroke="#B9B1A6" stroke-opacity="0.5" stroke-width="2"/>
<path d="M38.5 33.058C40.1606 34.2564 43.8087 34.7004 50.4547 31.4126M50.4547 31.4126C53.7631 29.7688 54.6028 28.9483 57.9146 26.4835C64.0341 21.929 69.3215 18.9421 73.6999 19.0766C80.3394 19.0851 82 25.1389 82 33.058C82 50.3186 78.4415 69.2231 69.5453 81.5521C65.3937 87.3057 62.9028 88.1276 57.0908 80.7262C53.0357 75.562 50.7739 76.3775 47.9574 79.0823C45.1772 81.7522 43.1167 86.4257 40.6419 86.0174C33.9994 84.9215 20.2734 64.2787 19.0529 35.8816C17.6054 2.2043 46.2996 31.4127 50.4547 31.4126Z" stroke="#B9B1A6" stroke-width="2" stroke-linecap="round"/>
<path d="M36 63.002V46.002C36 44.3451 37.3431 43.002 39 43.002H63C64.6569 43.002 66 44.3451 66 46.002V63.002C66 64.6588 64.6569 66.002 63 66.002H39C37.3431 66.002 36 64.6588 36 63.002Z" stroke="#B9B1A6" stroke-width="2"/>
<path d="M44 57.002V52.002C44 50.3451 45.3431 49.002 47 49.002H55C56.6569 49.002 58 50.3451 58 52.002V57.002C58 58.6588 56.6569 60.002 55 60.002H47C45.3431 60.002 44 58.6588 44 57.002Z" stroke="#B9B1A6" stroke-width="2"/>
<path d="M36 54.0723H0" stroke="#B9B1A6" stroke-width="2"/>
<path d="M103 54.0723H67" stroke="#B9B1A6" stroke-width="2"/>
</svg>
