<svg width="101" height="106" viewBox="0 0 101 106" fill="none" xmlns="http://www.w3.org/2000/svg">
<g clip-path="url(#clip0_4023_15423)">
<path d="M125.5 32.9877C123.839 34.1861 120.191 34.6301 113.545 31.3423M113.545 31.3423C110.237 29.6985 109.397 28.878 106.085 26.4131C99.9659 21.8587 94.6785 18.8718 90.3001 19.0063C83.6606 19.0148 82 25.0686 82 32.9877C82 50.2483 85.5585 69.1528 94.4547 81.4818C98.6063 87.2354 101.097 88.0573 106.909 80.6558C110.964 75.4917 113.226 76.3072 116.043 79.012C118.823 81.6819 120.883 86.3554 123.358 85.9471C130.001 84.8511 143.727 64.2083 144.947 35.8113C146.395 2.13399 117.7 31.3424 113.545 31.3423Z" stroke="#B9B1A6" stroke-width="2" stroke-linecap="round"/>
<path d="M-24.5 32.9877C-22.8394 34.1861 -19.1913 34.6301 -12.5453 31.3423M-12.5453 31.3423C-9.23694 29.6985 -8.39724 28.878 -5.08537 26.4131C1.03411 21.8587 6.32152 18.8718 10.6999 19.0063C17.3394 19.0148 19 25.0686 19 32.9877C19 50.2483 15.4415 69.1528 6.54531 81.4818C2.39374 87.2354 -0.097198 88.0573 -5.90916 80.6558C-9.9643 75.4917 -12.2261 76.3072 -15.0426 79.012C-17.8228 81.6819 -19.8833 86.3554 -22.3581 85.9471C-29.0006 84.8511 -42.7266 64.2083 -43.9471 35.8113C-45.3946 2.13399 -16.7004 31.3424 -12.5453 31.3423Z" stroke="#B9B1A6" stroke-width="2" stroke-linecap="round"/>
<path d="M38.5 33.058C40.1606 34.2564 43.8087 34.7004 50.4547 31.4126M50.4547 31.4126C53.7631 29.7688 54.6028 28.9483 57.9146 26.4835C64.0341 21.929 69.3215 18.9421 73.6999 19.0766C80.3394 19.0851 82 25.1389 82 33.058C82 50.3186 78.4415 69.2231 69.5453 81.5521C65.3937 87.3057 62.9028 88.1276 57.0908 80.7262C53.0357 75.562 50.7739 76.3775 47.9574 79.0823C45.1772 81.7522 43.1167 86.4257 40.6419 86.0174C33.9994 84.9215 20.2734 64.2787 19.0529 35.8816C17.6054 2.2043 46.2996 31.4127 50.4547 31.4126Z" stroke="#B9B1A6" stroke-width="2" stroke-linecap="round"/>
<path d="M-3.93731 107.982L-3.01833 62.6824C-2.97935 60.7609 -1.15878 59.3735 0.707572 59.8326C6.95292 61.3687 13.5681 60.6315 19.3139 57.7418L23.7644 55.5036C33.0413 50.9787 44.2213 52.3933 52.173 58.974C53.0476 59.6979 53.8561 60.5203 54.5626 61.4091L56.5776 63.9441C62.2488 71.0788 73.4604 69.6817 77.2073 61.3734L79.3055 56.7209C79.909 55.3828 81.6159 54.9786 82.7554 55.904C87.653 59.8816 94.1318 61.3336 100.259 59.8267L101.02 59.6394C102.501 59.2752 103.944 60.3588 104.007 61.8822L105.872 106.924C105.942 108.617 104.597 110.032 102.903 110.048L-0.909196 111.043C-2.60107 111.059 -3.97162 109.674 -3.93731 107.982Z" fill="white" stroke="#B9B1A6" stroke-width="2" stroke-linecap="round"/>
</g>
<rect x="100" y="104.072" width="99" height="103" transform="rotate(180 100 104.072)" stroke="#B9B1A6" stroke-opacity="0.5" stroke-width="2"/>
<defs>
<clipPath id="clip0_4023_15423">
<rect x="101" y="105.072" width="101" height="105" transform="rotate(180 101 105.072)" fill="white"/>
</clipPath>
</defs>
</svg>
