<svg width="101" height="106" viewBox="0 0 101 106" fill="none" xmlns="http://www.w3.org/2000/svg">
<g clip-path="url(#clip0_4023_15473)">
<path d="M125.5 81.058C123.839 82.2564 120.191 82.7004 113.545 79.4126M113.545 79.4126C110.237 77.7688 109.397 76.9483 106.085 74.4835C99.9659 69.929 94.6785 66.9421 90.3001 67.0766C83.6606 67.0851 82 73.1389 82 81.058C82 98.3186 85.5585 117.223 94.4547 129.552C98.6063 135.306 101.097 136.128 106.909 128.726C110.964 123.562 113.226 124.378 116.043 127.082C118.823 129.752 120.883 134.426 123.358 134.017C130.001 132.921 143.727 112.279 144.947 83.8816C146.395 50.2043 117.7 79.4127 113.545 79.4126Z" stroke="#B9B1A6" stroke-width="2" stroke-linecap="round"/>
<path d="M-24.5 81.058C-22.8394 82.2564 -19.1913 82.7004 -12.5453 79.4126M-12.5453 79.4126C-9.23694 77.7688 -8.39724 76.9483 -5.08537 74.4835C1.03411 69.929 6.32152 66.9421 10.6999 67.0766C17.3394 67.0851 19 73.1389 19 81.058C19 98.3186 15.4415 117.223 6.54531 129.552C2.39374 135.306 -0.097198 136.128 -5.90916 128.726C-9.9643 123.562 -12.2261 124.378 -15.0426 127.082C-17.8228 129.752 -19.8833 134.426 -22.3581 134.017C-29.0006 132.921 -42.7266 112.279 -43.9471 83.8816C-45.3946 50.2043 -16.7004 79.4127 -12.5453 79.4126Z" stroke="#B9B1A6" stroke-width="2" stroke-linecap="round"/>
<path d="M38.5 81.058C40.1606 82.2564 43.8087 82.7004 50.4547 79.4126M50.4547 79.4126C53.7631 77.7688 54.6028 76.9483 57.9146 74.4835C64.0341 69.929 69.3215 66.9421 73.6999 67.0766C80.3394 67.0851 82 73.1389 82 81.058C82 98.3186 78.4415 117.223 69.5453 129.552C65.3937 135.306 62.9028 136.128 57.0908 128.726C53.0357 123.562 50.7739 124.378 47.9574 127.082C45.1772 129.752 43.1167 134.426 40.6419 134.017C33.9994 132.921 20.2734 112.279 19.0529 83.8816C17.6054 50.2043 46.2996 79.4127 50.4547 79.4126Z" stroke="#B9B1A6" stroke-width="2" stroke-linecap="round"/>
<path d="M-24.5 24.0865C-22.8394 22.8881 -19.1913 22.4441 -12.5453 25.7319M-12.5453 25.7319C-9.23694 27.3757 -8.39724 28.1962 -5.08537 30.6611C1.03411 35.2155 6.32152 38.2024 10.6999 38.0679C17.3394 38.0594 19 32.0056 19 24.0865C19 6.82591 15.4415 -12.0786 6.54531 -24.4076C2.39374 -30.1611 -0.097198 -30.9831 -5.90916 -23.5816C-9.9643 -18.4175 -12.2261 -19.233 -15.0426 -21.9378C-17.8228 -24.6077 -19.8833 -29.2811 -22.3581 -28.8728C-29.0006 -27.7769 -42.7266 -7.13413 -43.9471 21.2629C-45.3946 54.9402 -16.7004 25.7319 -12.5453 25.7319Z" stroke="#B9B1A6" stroke-width="2" stroke-linecap="round"/>
<path d="M125.5 24.0865C123.839 22.8881 120.191 22.4441 113.545 25.7319M113.545 25.7319C110.237 27.3757 109.397 28.1962 106.085 30.6611C99.9659 35.2155 94.6785 38.2024 90.3001 38.0679C83.6606 38.0594 82 32.0056 82 24.0865C82 6.82591 85.5585 -12.0786 94.4547 -24.4076C98.6063 -30.1611 101.097 -30.9831 106.909 -23.5816C110.964 -18.4175 113.226 -19.233 116.043 -21.9378C118.823 -24.6077 120.883 -29.2811 123.358 -28.8728C130.001 -27.7769 143.727 -7.13413 144.947 21.2629C146.395 54.9402 117.7 25.7319 113.545 25.7319Z" stroke="#B9B1A6" stroke-width="2" stroke-linecap="round"/>
<path d="M62.5 24.0865C60.8394 22.8881 57.1913 22.4441 50.5453 25.7319M50.5453 25.7319C47.2369 27.3757 46.3972 28.1962 43.0854 30.6611C36.9659 35.2155 31.6785 38.2024 27.3001 38.0679C20.6606 38.0594 19 32.0056 19 24.0865C19 6.82591 22.5585 -12.0786 31.4547 -24.4076C35.6063 -30.1611 38.0972 -30.9831 43.9092 -23.5816C47.9643 -18.4175 50.2261 -19.233 53.0426 -21.9378C55.8228 -24.6077 57.8833 -29.2811 60.3581 -28.8728C67.0006 -27.7769 80.7266 -7.13413 81.9471 21.2629C83.3946 54.9402 54.7004 25.7319 50.5453 25.7319Z" stroke="#B9B1A6" stroke-width="2" stroke-linecap="round"/>
</g>
<rect x="100" y="104.072" width="99" height="103" transform="rotate(180 100 104.072)" stroke="#B9B1A6" stroke-opacity="0.5" stroke-width="2"/>
<defs>
<clipPath id="clip0_4023_15473">
<rect x="101" y="105.072" width="101" height="105" transform="rotate(180 101 105.072)" fill="white"/>
</clipPath>
</defs>
</svg>
