<svg width="101" height="106" viewBox="0 0 101 106" fill="none" xmlns="http://www.w3.org/2000/svg">
<g clip-path="url(#clip0_4023_15520)">
<path d="M64.2462 20.8186L69.1706 22.2267C74.2064 23.6668 76.9536 29.0861 75.1383 33.9991L57.4671 81.8261L39.6528 130.321L29.4194 126.964L45.0663 79.2753M64.2462 20.8186L45.0663 79.2753M64.2462 20.8186L62.993 20.0358C57.9961 16.9147 52.287 15.1166 46.4034 14.8108V14.8108C45.9788 14.7887 45.6542 15.1842 45.7588 15.5963L46.3646 17.9852C46.4676 18.3913 46.3065 18.8185 45.9611 19.0555L43.1762 20.9666C42.8043 21.2218 42.6493 21.6943 42.7977 22.1202L43.8872 25.2468C44.0356 25.6726 43.8805 26.1452 43.5087 26.4003L40.7787 28.2737C40.4068 28.5289 40.2518 29.0014 40.4002 29.4273L41.4897 32.5538C41.6381 32.9797 41.483 33.4522 41.1112 33.7074L38.3812 35.5808C38.0094 35.836 37.8543 36.3085 38.0027 36.7344L39.0922 39.8609C39.2406 40.2868 39.0855 40.7593 38.7137 41.0145L35.9837 42.8879C35.6119 43.1431 35.4568 43.6156 35.6052 44.0415L36.6947 47.168C36.8431 47.5939 36.688 48.0664 36.3162 48.3216L33.5862 50.195C33.2144 50.4502 33.0593 50.9227 33.2077 51.3486L34.2972 54.4751C34.4456 54.901 34.2906 55.3735 33.9187 55.6287L31.1887 57.5021C30.8169 57.7573 30.6618 58.2298 30.8102 58.6557L31.8997 61.7822C32.0481 62.2081 31.8931 62.6806 31.5212 62.9358L28.7912 64.8092C28.4194 65.0644 28.2643 65.5369 28.4127 65.9628L29.5465 69.2164C29.673 69.5796 29.5801 69.9832 29.3074 70.2545L27.0257 72.5241C26.5644 72.9829 26.6903 73.7592 27.273 74.0486V74.0486C32.1296 76.4613 37.3321 78.1034 42.6937 78.9158L45.0663 79.2753" stroke="#B9B1A6" stroke-width="2"/>
<path d="M53.5731 21.988L50.2133 24.2936C49.8415 24.5488 49.6864 25.0213 49.8348 25.4472L50.9243 28.5737C51.0727 28.9996 50.9177 29.4721 50.5458 29.7273L47.8158 31.6007C47.444 31.8559 47.2889 32.3284 47.4373 32.7543L48.5268 35.8808C48.6752 36.3067 48.5202 36.7792 48.1483 37.0344L45.4183 38.9078C45.0465 39.1629 44.8915 39.6355 45.0399 40.0613L46.1293 43.1879C46.2777 43.6138 46.1227 44.0863 45.7508 44.3415L43.0209 46.2149C42.649 46.47 42.494 46.9426 42.6424 47.3684L43.7318 50.495C43.8802 50.9209 43.7252 51.3934 43.3533 51.6486L40.6234 53.522C40.2515 53.7771 40.0965 54.2497 40.2449 54.6755L41.3343 57.8021C41.4827 58.228 41.3277 58.7005 40.9558 58.9557L38.2259 60.829C37.854 61.0842 37.699 61.5567 37.8474 61.9826L38.9368 65.1092C39.0852 65.5351 38.9302 66.0076 38.5583 66.2628L35.8284 68.1361C35.4565 68.3913 35.3015 68.8638 35.4499 69.2897L36.7907 73.1376" stroke="#B9B1A6" stroke-width="2" stroke-linecap="round"/>
</g>
<rect x="100" y="104.072" width="99" height="103" transform="rotate(180 100 104.072)" stroke="#B9B1A6" stroke-opacity="0.5" stroke-width="2"/>
<defs>
<clipPath id="clip0_4023_15520">
<rect x="101" y="105.072" width="101" height="105" transform="rotate(180 101 105.072)" fill="white"/>
</clipPath>
</defs>
</svg>
