<svg width="101" height="106" viewBox="0 0 101 106" fill="none" xmlns="http://www.w3.org/2000/svg">
<rect x="100" y="104.072" width="99" height="103" transform="rotate(180 100 104.072)" stroke="#B9B1A6" stroke-opacity="0.5" stroke-width="2"/>
<path d="M35 55.5723C37.973 66.2366 45.3784 87.362 51.2162 86.5495C57.0541 85.737 62.8378 65.5595 65 55.5723" stroke="#B9B1A6" stroke-width="2"/>
<path d="M38 63.5723C42.4646 63.0723 53.9152 61.3723 64 58.5723" stroke="#B9B1A6" stroke-width="2"/>
<path d="M40 71.0723C44.6897 70.5167 51.4069 69.6834 62 66.5723" stroke="#B9B1A6" stroke-width="2"/>
<path d="M43 77.5723C47.3788 77.1437 50.1091 76.9723 60 74.5723" stroke="#B9B1A6" stroke-width="2"/>
<path d="M38.5 32.558C40.1606 33.7564 43.8087 34.2004 50.4547 30.9126M50.4547 30.9126C53.7631 29.2688 54.6028 28.4483 57.9146 25.9835C64.0341 21.429 69.3215 18.4421 73.6999 18.5766C80.3394 18.5851 82 24.6389 82 32.558C82 40.1445 81.3126 48.0485 79.7866 55.5723H22.1483C20.5104 49.4903 19.3672 42.6929 19.0529 35.3816C17.6054 1.7043 46.2996 30.9127 50.4547 30.9126Z" stroke="#B9B1A6" stroke-width="2" stroke-linecap="round"/>
</svg>
