<svg width="101" height="106" viewBox="0 0 101 106" fill="none" xmlns="http://www.w3.org/2000/svg">
<rect x="100" y="104.072" width="99" height="103" transform="rotate(180 100 104.072)" stroke="#B9B1A6" stroke-opacity="0.5" stroke-width="2"/>
<path d="M38.5 33.058C40.1606 34.2564 43.8087 34.7004 50.4547 31.4126M50.4547 31.4126C53.7631 29.7688 54.6028 28.9483 57.9146 26.4835C64.0341 21.929 69.3215 18.9421 73.6999 19.0766C80.3394 19.0851 82 25.1389 82 33.058C82 50.3186 78.4415 69.2231 69.5453 81.5521C65.3937 87.3057 62.9028 88.1276 57.0908 80.7262C53.0357 75.562 50.7739 76.3775 47.9574 79.0823C45.1772 81.7522 43.1167 86.4257 40.6419 86.0174C33.9994 84.9215 20.2734 64.2787 19.0529 35.8816C17.6054 2.2043 46.2996 31.4127 50.4547 31.4126Z" stroke="#B9B1A6" stroke-width="2" stroke-linecap="round"/>
<path d="M81.5004 32.5018C79.667 31.1684 74.9004 29.5018 70.5004 33.5018C65.0004 38.5018 65.5004 41.502 58.0004 44.502C50.5004 47.502 49.0004 49.502 50.5004 54.002C52.0004 58.502 59.5011 55.002 63.5011 59.002C67.5011 63.002 64.5011 67.502 68.5011 69.502C71.7011 71.102 75.1678 69.1686 76.5011 68.002M37.9961 41.502C34.4943 43.502 33.6987 46.602 36.4987 49.002C39.9987 52.002 43.4965 49.002 44.9965 47.002C46.4965 45.002 46.9943 37.002 37.9961 41.502Z" stroke="#B9B1A6" stroke-width="2" stroke-linecap="round"/>
</svg>
