<svg width="101" height="106" viewBox="0 0 101 106" fill="none" xmlns="http://www.w3.org/2000/svg">
<rect x="100" y="104.072" width="99" height="103" transform="rotate(180 100 104.072)" stroke="#B9B1A6" stroke-opacity="0.5" stroke-width="2"/>
<path d="M26.15 25.4963H11.616L8.808 30.0723H6.754L17.726 11.8723H20.04L31.012 30.0723H28.958L26.15 25.4963ZM12.63 23.8583H25.162L18.896 13.6663L12.63 23.8583ZM34.4755 11.8723H36.3995V28.3303H52.9095V30.0723H34.4755V11.8723ZM56.6669 11.8723H58.5909V28.3303H75.1009V30.0723H56.6669V11.8723ZM25.708 50.3743V52.1163H8.704V50.3743H25.708ZM42.1999 41.5083C51.0139 41.5083 54.2119 45.5643 54.2119 50.9203C54.2119 56.3023 51.0139 60.3323 42.1999 60.3323C33.3859 60.3323 30.1879 56.3023 30.1879 50.9203C30.1879 45.5643 33.3859 41.5083 42.1999 41.5083ZM42.1999 58.5383C49.7139 58.5383 52.3139 55.2883 52.3139 50.9203C52.3139 46.5523 49.7139 43.3283 42.1999 43.3283C34.6859 43.3283 32.0859 46.5523 32.0859 50.9203C32.0859 55.2883 34.6859 58.5383 42.1999 58.5383ZM60.1548 41.8723L78.3288 57.3423V41.8723H80.2268V60.0723H78.7708L60.5968 44.6023V60.0723H58.6728V41.8723H60.1548ZM24.226 80.6603H26.124V85.7823H29.556V87.4723H26.124V90.0723H24.226V87.4723H7.066V86.1723L20.014 71.8723H22.406L9.77 85.7823H24.226V80.6603ZM56.4164 69.2723L44.9764 92.6723H43.1824L54.6224 69.2723H56.4164ZM80.9493 88.6163C87.2933 88.6163 89.5033 86.4843 89.5033 83.6243C89.5033 80.7643 87.2933 78.6323 80.9493 78.6323C74.6313 78.6323 72.3953 80.7643 72.3953 83.6243C72.3953 86.4843 74.6313 88.6163 80.9493 88.6163ZM83.3933 71.8463L77.0233 77.3323C78.1413 77.1243 79.4673 77.0203 80.9493 77.0203C88.6193 77.0203 91.4013 79.8803 91.4013 83.6763C91.4013 87.4983 88.6193 90.3583 80.9493 90.3583C73.2793 90.3583 70.4973 87.4983 70.4973 83.6763C70.4973 81.8823 71.1213 80.2963 72.6033 79.1003L81.0533 71.8463H83.3933Z" fill="#B9B1A6"/>
</svg>
