<svg width="29" height="29" viewBox="0 0 29 29" fill="none" xmlns="http://www.w3.org/2000/svg">
<path d="M8.69434 0.40625C4.1449 0.40625 0.40625 4.13989 0.40625 8.69434V20.3057C0.40625 24.8551 4.13989 28.5938 8.69434 28.5938H20.3057C24.8551 28.5938 28.5938 24.8601 28.5938 20.3057V8.69434C28.5938 4.1449 24.8601 0.40625 20.3057 0.40625H8.69434ZM8.69434 2.96875H20.3057C23.4738 2.96875 26.0312 5.52625 26.0312 8.69434V20.3057C26.0312 23.4738 23.4738 26.0312 20.3057 26.0312H8.69434C5.52625 26.0312 2.96875 23.4738 2.96875 20.3057V8.69434C2.96875 5.52625 5.52625 2.96875 8.69434 2.96875ZM22.0674 5.77148C21.4218 5.77148 20.9062 6.28699 20.9062 6.93262C20.9062 7.57825 21.4218 8.09375 22.0674 8.09375C22.713 8.09375 23.2285 7.57825 23.2285 6.93262C23.2285 6.28699 22.713 5.77148 22.0674 5.77148ZM14.5 6.8125C10.2709 6.8125 6.8125 10.2709 6.8125 14.5C6.8125 18.7291 10.2709 22.1875 14.5 22.1875C18.7291 22.1875 22.1875 18.7291 22.1875 14.5C22.1875 10.2709 18.7291 6.8125 14.5 6.8125ZM14.5 9.375C17.3478 9.375 19.625 11.6522 19.625 14.5C19.625 17.3478 17.3478 19.625 14.5 19.625C11.6522 19.625 9.375 17.3478 9.375 14.5C9.375 11.6522 11.6522 9.375 14.5 9.375Z" fill="#B9B1A6"/>
</svg>
