<svg width="24" height="25" viewBox="0 0 24 25" fill="none" xmlns="http://www.w3.org/2000/svg">
<path d="M8.60156 4.37891C5.93848 4.37891 3.75 6.56445 3.75 9.23047V16.0273C3.75 18.6904 5.93555 20.8789 8.60156 20.8789H15.3984C18.0615 20.8789 20.25 18.6934 20.25 16.0273V9.23047C20.25 6.56738 18.0645 4.37891 15.3984 4.37891H8.60156ZM8.60156 5.87891H15.3984C17.2529 5.87891 18.75 7.37598 18.75 9.23047V16.0273C18.75 17.8818 17.2529 19.3789 15.3984 19.3789H8.60156C6.74707 19.3789 5.25 17.8818 5.25 16.0273V9.23047C5.25 7.37598 6.74707 5.87891 8.60156 5.87891ZM16.4297 7.51953C16.0518 7.51953 15.75 7.82129 15.75 8.19922C15.75 8.57715 16.0518 8.87891 16.4297 8.87891C16.8076 8.87891 17.1094 8.57715 17.1094 8.19922C17.1094 7.82129 16.8076 7.51953 16.4297 7.51953ZM12 8.12891C9.52441 8.12891 7.5 10.1533 7.5 12.6289C7.5 15.1045 9.52441 17.1289 12 17.1289C14.4756 17.1289 16.5 15.1045 16.5 12.6289C16.5 10.1533 14.4756 8.12891 12 8.12891ZM12 9.62891C13.667 9.62891 15 10.9619 15 12.6289C15 14.2959 13.667 15.6289 12 15.6289C10.333 15.6289 9 14.2959 9 12.6289C9 10.9619 10.333 9.62891 12 9.62891Z" fill="white"/>
</svg>
