<svg width="31" height="32" viewBox="0 0 31 32" fill="none" xmlns="http://www.w3.org/2000/svg">
<path fill-rule="evenodd" clip-rule="evenodd" d="M26.3956 4.61438C23.5028 1.72156 19.6591 0.125 15.5651 0.125C7.12683 0.125 0.255128 6.9917 0.255128 15.4299C0.250122 18.1276 0.955811 20.7601 2.29712 23.0824L0.125 31.0151L8.24292 28.8831C10.4751 30.1042 12.9976 30.7449 15.5601 30.7499H15.5651C24.0033 30.7499 30.87 23.8832 30.875 15.4399C30.875 11.351 29.2834 7.5072 26.3956 4.61438ZM15.5651 28.1624H15.5601C13.2778 28.1624 11.0356 27.5468 9.08374 26.3906L8.61829 26.1154L3.79858 27.3766L5.08484 22.682L4.78455 22.2015C3.5083 20.1746 2.83765 17.8323 2.83765 15.4299C2.83765 8.41809 8.54822 2.71252 15.5701 2.71252C18.9684 2.71252 22.1615 4.03882 24.5638 6.44116C26.9662 8.84851 28.2875 12.0416 28.2875 15.4399C28.2875 22.4568 22.5769 28.1624 15.5651 28.1624ZM22.5419 18.6331C22.1615 18.4429 20.2797 17.517 19.9293 17.3918C19.579 17.2617 19.3237 17.2017 19.0685 17.582C18.8132 17.9674 18.0825 18.8282 17.8573 19.0835C17.6371 19.3337 17.4119 19.3688 17.0315 19.1786C16.6461 18.9884 15.4149 18.583 13.9535 17.2767C12.8174 16.2657 12.0466 15.0095 11.8264 14.6292C11.6012 14.2438 11.8014 14.0386 11.9916 13.8484C12.1667 13.6782 12.377 13.403 12.5671 13.1777C12.7573 12.9575 12.8224 12.7974 12.9525 12.5421C13.0776 12.2869 13.0126 12.0616 12.9175 11.8715C12.8224 11.6813 12.0566 9.79443 11.7363 9.02869C11.426 8.28296 11.1107 8.38806 10.8755 8.37305C10.6553 8.36304 10.4 8.36304 10.1448 8.36304C9.88953 8.36304 9.47412 8.45813 9.12378 8.84351C8.77344 9.22388 7.78748 10.1498 7.78748 12.0316C7.78748 13.9135 9.15881 15.7352 9.349 15.9905C9.53918 16.2407 12.0466 20.1045 15.8854 21.7611C16.7963 22.1565 17.507 22.3917 18.0625 22.5669C18.9784 22.8572 19.8142 22.8171 20.4749 22.722C21.2106 22.6119 22.7371 21.7961 23.0574 20.9003C23.3727 20.0094 23.3727 19.2437 23.2776 19.0835C23.1825 18.9233 22.9272 18.8282 22.5419 18.6331Z" fill="#B9B1A6"/>
</svg>
