<svg width="37" height="29" viewBox="0 0 37 29" fill="none" xmlns="http://www.w3.org/2000/svg">
<path d="M18.5 0.4375C13.2046 0.4375 8.52441 0.986816 5.66797 1.4043C3.30591 1.75037 1.39978 3.53015 0.96582 5.88672C0.597778 7.89172 0.21875 10.8251 0.21875 14.5C0.21875 18.1749 0.597778 21.1083 0.96582 23.1133C1.39978 25.4698 3.30591 27.2551 5.66797 27.5957C8.5354 28.0132 13.2321 28.5625 18.5 28.5625C23.7679 28.5625 28.4646 28.0132 31.332 27.5957C33.6941 27.2551 35.6002 25.4698 36.0342 23.1133C36.4022 21.1028 36.7812 18.1639 36.7812 14.5C36.7812 10.8361 36.4077 7.89722 36.0342 5.88672C35.6002 3.53015 33.6941 1.75037 31.332 1.4043C28.4756 0.986816 23.7954 0.4375 18.5 0.4375ZM18.5 3.25C23.6086 3.25 28.1735 3.77185 30.9365 4.17285C32.123 4.34863 33.0514 5.24402 33.2656 6.41406C33.6062 8.27075 33.9688 11.0228 33.9688 14.5C33.9688 17.9717 33.6062 20.7292 33.2656 22.5859C33.0514 23.756 32.1285 24.6569 30.9365 24.8271C28.1625 25.2281 23.5757 25.75 18.5 25.75C13.4243 25.75 8.83203 25.2281 6.06348 24.8271C4.87695 24.6569 3.94861 23.756 3.73438 22.5859C3.3938 20.7292 3.03125 17.9827 3.03125 14.5C3.03125 11.0118 3.3938 8.27075 3.73438 6.41406C3.94861 5.24402 4.87146 4.34863 6.06348 4.17285C8.82105 3.77185 13.3914 3.25 18.5 3.25ZM14.2812 6.45801V22.542L16.3906 21.3555L26.2344 15.7305L28.3438 14.5L26.2344 13.2695L16.3906 7.64453L14.2812 6.45801ZM17.0938 11.292L22.6748 14.5L17.0938 17.708V11.292Z" fill="#B9B1A6"/>
</svg>
