<svg width="112" height="36" viewBox="0 0 112 36" fill="none" xmlns="http://www.w3.org/2000/svg">
<path d="M60.8021 25.8711C60.7288 26.3848 59.0246 27.6508 55.6895 29.6691C50.3386 32.935 46.0689 34.5312 42.8803 34.4578C42.2939 34.4211 41.7625 34.1092 41.2861 33.5221C40.773 32.8983 40.5348 32.2561 40.5714 31.5956C40.718 29.9443 43.8699 26.2014 50.0271 20.3668C54.9015 15.4863 57.2837 12.5873 57.1738 11.6699C57.1005 11.1195 56.6973 10.8626 55.9644 10.8993C54.7549 10.936 52.0428 12.4405 47.8281 15.4129C42.5505 19.1558 37.8227 22.5685 33.6446 25.6509C32.6184 26.4215 28.6968 28.8434 21.88 32.9166C18.3249 35.0083 16.4924 36.0357 16.3825 35.9991C15.6495 35.7789 15.3013 35.4486 15.338 35.0083C15.4479 34.2744 17.6652 32.4763 21.9899 29.614L30.7859 23.7794C36.2834 20.1099 41.0479 16.4403 45.0793 12.7708C48.8909 9.13795 51.7496 5.87205 53.6554 2.9731C52.8491 3.08319 52.1528 3.22997 51.5664 3.41345L49.0375 4.29414C46.9851 4.99135 45.061 5.67022 43.2652 6.33074C37.1813 8.49577 32.2885 10.2755 28.5869 11.6699C26.6445 12.4038 23.8591 13.3946 20.2307 14.6423L11.8196 17.5596C5.7357 19.7613 2.67544 21.3209 2.63879 22.2382C2.63879 22.3483 2.74874 22.5318 2.96864 22.7887C3.18854 23.0455 3.29849 23.229 3.29849 23.3391C3.37179 23.8895 3.15189 24.2565 2.63879 24.44C2.08904 24.6234 1.52097 24.4033 0.934571 23.7794C0.311524 23.1556 0 22.4584 0 21.6878C0 20.5869 3.35346 18.7705 10.0604 16.2385C11.8562 15.578 14.9715 14.4771 19.4061 12.9359C23.5842 11.5048 26.6628 10.4039 28.6419 9.63333C33.0032 7.98204 38.3724 6.05552 44.7495 3.85379C52.0795 1.24841 56.0377 -0.0359306 56.6241 0.00076447C57.357 0.0741567 57.7235 0.367721 57.7235 0.881458C57.7235 1.46859 56.8806 2.86301 55.1947 5.06474L50.4669 10.7892C53.7654 9.39481 55.8178 8.6976 56.6241 8.6976C57.3937 8.6976 58.0717 8.93612 58.6581 9.41316C59.2445 9.9269 59.556 10.5691 59.5927 11.3397C59.6293 13.3579 57.1005 16.7706 52.0062 21.5777C46.2155 27.0087 43.3201 30.2746 43.3201 31.3754C43.3201 32.0726 44.0165 32.3662 45.4092 32.2561C46.8019 32.1827 49.8805 30.825 54.645 28.1829C55.268 27.8526 56.3125 27.1554 57.7785 26.0913C58.9147 25.2473 59.5927 24.8436 59.8126 24.8803C60.5456 24.9537 60.8754 25.284 60.8021 25.8711Z" fill="#B9B1A6"/>
<path d="M75.8511 25.2106C75.8144 25.6142 73.3589 27.5224 68.4844 30.9351C65.5158 32.99 62.9503 34.1643 60.788 34.4578C60.0183 34.5679 59.2303 34.2744 58.424 33.5771C57.5811 32.9166 57.1596 32.1827 57.1596 31.3754C57.1596 28.8067 58.4424 25.761 61.0079 22.2382C62.877 19.6696 64.5629 18.3852 66.0655 18.3852C66.8352 18.3852 67.5315 18.8072 68.1546 19.6512C68.7043 20.4585 68.9609 21.2842 68.9242 22.1282C68.8509 24.1464 67.3849 25.9445 64.5262 27.5224C63.3168 28.1829 61.7409 28.77 59.7984 29.2838C59.5052 29.8342 59.3586 30.458 59.3586 31.1552C59.3586 31.7791 59.945 32.146 61.1178 32.2561C61.8508 32.2928 63.7199 31.4488 66.7252 29.7241C72.7725 26.2014 75.5579 24.44 75.0814 24.44C75.6312 24.44 75.8877 24.6968 75.8511 25.2106ZM66.7252 22.0181C66.7252 21.2108 66.3954 20.8071 65.7357 20.8071C64.8927 20.8071 63.9398 21.6878 62.877 23.4492L60.788 26.972C62.5105 26.6784 63.8665 26.0546 64.8561 25.1005C66.1022 23.9262 66.7252 22.8988 66.7252 22.0181Z" fill="#B9B1A6"/>
<path d="M112 26.2014C112 27.2655 109.874 28.8801 105.623 31.0452C102.947 32.4029 100.785 33.1001 99.1359 33.1368C97.34 33.1735 96.0207 31.9992 95.1777 29.614C90.963 31.669 88.1043 32.6598 86.6016 32.5864C85.1723 32.513 84.0361 31.3387 83.1932 29.0636C81.1042 30.2746 79.6748 31.0452 78.9052 31.3754C75.8266 32.6598 73.8108 33.2469 72.8579 33.1368C71.2453 32.9533 70.4757 32.0726 70.549 30.4947C70.5856 29.6874 72.2715 27.7059 75.6067 24.5501C78.2821 22.0181 79.9314 20.697 80.5544 20.5869C81.1408 20.4769 81.434 20.8438 81.434 21.6878C81.434 21.5777 80.0047 23.0455 77.146 26.0913C74.947 28.4398 73.8475 29.6874 73.8475 29.8342C73.7375 30.2012 73.9941 30.4213 74.6171 30.4947C75.9365 30.6782 79.1251 29.137 84.1827 25.8711C89.7902 22.4217 92.5389 20.697 92.429 20.697C92.7222 20.6603 92.9787 20.7888 93.1986 21.0823C93.4185 21.3392 93.5285 21.6144 93.5285 21.908C93.5285 21.6878 92.2457 22.7887 89.6802 25.2106C89.387 25.4674 88.7273 26.0362 87.7011 26.9169C86.9315 27.5774 86.3817 28.1462 86.0519 28.6233C86.6383 29.7975 87.1147 30.3846 87.4812 30.3846C89.7902 30.3846 92.5023 29.0636 95.6175 26.4215L99.5757 23.229C102.068 21.2475 103.424 20.275 103.644 20.3117C104.67 20.4952 105.183 21.1374 105.183 22.2382C105.183 21.9447 103.534 23.3024 100.235 26.3114C99.1725 27.3389 98.5861 28.1462 98.4762 28.7333C98.3662 29.1737 98.5128 29.6507 98.916 30.1645C99.2825 30.6782 99.6856 30.9351 100.125 30.9351C100.675 30.9351 102.068 30.458 104.304 29.5039C105.366 29.0269 106.741 28.1829 108.427 26.972C110.003 25.8344 110.864 25.2473 111.01 25.2106C111.67 25.0271 112 25.3574 112 26.2014Z" fill="#B9B1A6"/>
</svg>
