<svg width="24" height="25" viewBox="0 0 24 25" fill="none" xmlns="http://www.w3.org/2000/svg">
<path d="M6.49236 3.03906C6.09978 3.03906 5.71307 3.17969 5.3908 3.4375L5.34392 3.46094L5.32049 3.48438L2.97674 5.89844L3.00017 5.92188C2.27654 6.58984 2.05389 7.58887 2.36736 8.45313C2.37029 8.45899 2.36443 8.4707 2.36736 8.47656C3.0031 10.2959 4.62908 13.8086 7.80486 16.9844C10.9924 20.1719 14.5519 21.7334 16.3127 22.4219H16.3361C17.2472 22.7266 18.2346 22.5098 18.9377 21.9063L21.3049 19.5391C21.926 18.918 21.926 17.8398 21.3049 17.2188L18.258 14.1719L18.2346 14.125C17.6135 13.5039 16.5119 13.5039 15.8908 14.125L14.3908 15.625C13.8488 15.3643 12.5568 14.6963 11.3205 13.5156C10.0929 12.3438 9.466 10.9961 9.23455 10.4688L10.7345 8.96875C11.3644 8.33887 11.3762 7.29004 10.7111 6.67188L10.7345 6.64844L10.6642 6.57813L7.66424 3.48438L7.6408 3.46094L7.59392 3.4375C7.27166 3.17969 6.88494 3.03906 6.49236 3.03906ZM6.49236 4.53906C6.54803 4.53906 6.60369 4.56543 6.65642 4.60938L9.65642 7.67969L9.72674 7.75C9.72088 7.74414 9.77068 7.82324 9.67986 7.91406L7.80486 9.78906L7.4533 10.1172L7.61736 10.5859C7.61736 10.5859 8.47869 12.8916 10.2892 14.6172L10.4533 14.7578C12.1965 16.3486 14.2502 17.2188 14.2502 17.2188L14.7189 17.4297L16.9455 15.2031C17.0744 15.0742 17.051 15.0742 17.1799 15.2031L20.2502 18.2734C20.3791 18.4023 20.3791 18.3555 20.2502 18.4844L17.9533 20.7813C17.6076 21.0772 17.2414 21.1387 16.8049 20.9922C15.1056 20.3242 11.8039 18.874 8.85955 15.9297C5.89178 12.9619 4.34197 9.5957 3.77361 7.96094C3.65935 7.65625 3.74139 7.20508 4.00799 6.97656L4.05486 6.92969L6.3283 4.60938C6.38103 4.56543 6.4367 4.53906 6.49236 4.53906Z" fill="white"/>
</svg>
