<svg style="width:0; height:0; visibility: hidden;" xmlns="http://www.w3.org/2000/svg">
	<symbol id="svg-logo" viewBox="0 0 267 43">
	<g>
		
			<path d="M96.5189 25.7967C96.6755 25.4835 96.8178 25.1704 96.9602 24.8572C98.4831 21.5266 99.9919 18.196 101.501 14.8511C101.586 14.6518 101.7 14.4525 101.771 14.2533C101.885 13.9401 102.098 13.8263 102.426 13.8547C102.896 13.8832 103.379 13.8974 103.849 13.8547C104.319 13.812 104.518 14.0398 104.703 14.4241C105.771 16.8153 106.867 19.1923 107.948 21.5835C108.518 22.8503 109.101 24.1171 109.671 25.3696C109.742 25.512 109.827 25.6401 109.898 25.7824C110.14 25.6543 110.169 25.4266 110.254 25.2415C111.749 21.7259 113.243 18.2102 114.738 14.6945C115.122 13.7836 114.951 13.869 115.962 13.869C116.304 13.869 116.659 13.869 117.001 13.869C117.969 13.8547 117.955 13.8547 117.613 14.7087C115.606 19.5197 113.599 24.3164 111.592 29.1273C111.564 29.1842 111.55 29.2412 111.535 29.3123C111.436 29.7109 111.194 29.8674 110.767 29.839C110.197 29.8105 109.628 29.8247 109.059 29.8247C108.845 29.8247 108.689 29.7536 108.603 29.5543C108.518 29.355 108.418 29.1558 108.333 28.9565C106.81 25.5974 105.287 22.224 103.764 18.8649C103.636 18.5803 103.493 18.2956 103.351 18.0109C103.323 17.9682 103.266 17.9397 103.209 17.9113C103.138 17.8828 103.095 17.9113 103.066 17.9824C102.938 18.2671 102.796 18.5518 102.668 18.8365C101.145 22.1671 99.6361 25.4978 98.1273 28.8426C98.0277 29.0704 97.9138 29.2981 97.8142 29.5258C97.7288 29.7109 97.6007 29.8247 97.3729 29.8247C97.316 29.8247 97.2448 29.8247 97.1879 29.8247C96.5189 29.8105 95.8642 29.7963 95.1952 29.782C94.7682 29.2554 94.6116 28.6007 94.3554 27.9886C92.4908 23.562 90.6547 19.1354 88.7901 14.7087C88.4058 13.7978 88.5054 13.8547 89.3879 13.869C89.9003 13.869 90.3985 13.8832 90.9109 13.869C91.1956 13.869 91.3664 13.9828 91.4802 14.2533C92.1065 15.7336 92.7328 17.2138 93.3591 18.6941C94.2558 20.8149 95.1525 22.9357 96.0634 25.0565C96.1773 25.2985 96.2058 25.5974 96.5189 25.7967Z" fill="currentColor" />
			<path d="M79.4669 13.8398C81.8723 13.8398 84.2636 13.8398 86.669 13.8398C86.9252 13.8398 87.1814 13.8398 87.4234 13.8398C87.6085 13.8398 87.7223 13.9395 87.7366 14.1245C87.7508 14.2241 87.765 14.3096 87.7508 14.4092C87.7223 15.007 87.822 15.6048 87.6939 16.2026C87.1245 16.473 86.5125 16.3165 85.9289 16.3165C82.3278 16.3307 78.7267 16.3307 75.1256 16.3307C74.8979 16.3307 74.6844 16.3307 74.4567 16.3307C73.987 16.3449 73.9443 16.3734 73.9443 16.8004C73.93 17.9391 73.9443 19.0778 73.9443 20.2165C73.9443 20.6008 73.987 20.6292 74.3997 20.6435C75.3818 20.6435 76.364 20.6435 77.3318 20.6435C80.207 20.6435 83.0822 20.6435 85.9574 20.6435C86.2136 20.6435 86.4698 20.6435 86.7117 20.6577C86.8968 20.6719 87.0106 20.7716 87.0106 20.9566C87.0106 21.5544 87.0249 22.1522 87.0106 22.75C87.0106 22.9351 86.8541 23.0205 86.6833 23.0205C86.4271 23.0347 86.1709 23.0347 85.9289 23.0347C82.3278 23.0347 78.7267 23.0347 75.1256 23.0347C74.8979 23.0347 74.6844 23.0347 74.4567 23.0347C74.0012 23.0347 73.9158 23.0774 73.93 23.5756C73.93 24.6573 73.93 25.7248 73.93 26.8066C73.93 27.3048 73.9443 27.3048 74.4851 27.319C74.7129 27.319 74.9264 27.319 75.1541 27.319C79.0683 27.319 82.9968 27.319 86.911 27.319C87.7081 27.319 87.765 27.2478 87.765 28.1303C87.765 28.4719 87.765 28.8278 87.765 29.1694C87.7508 29.7672 87.7508 29.7814 87.1103 29.7814C83.5661 29.7814 80.0362 29.7814 76.4921 29.7814C75.0687 29.7814 73.6454 29.7814 72.222 29.7814C71.9658 29.7814 71.7238 29.7814 71.4676 29.7529C71.3395 29.7387 71.2257 29.6675 71.2257 29.5252C71.2114 29.3686 71.2114 29.2121 71.2114 29.0555C71.2114 24.2446 71.2114 19.4479 71.2114 14.6369C71.2114 14.4804 71.2114 14.3238 71.2257 14.1672C71.2399 13.9964 71.3253 13.8683 71.5103 13.8541C71.7665 13.8398 72.0085 13.8398 72.2647 13.8398C74.6559 13.8398 77.0614 13.8398 79.4669 13.8398Z" fill="currentColor" />
			<path d="M170.661 27.1917C171.031 27.3625 171.387 27.2771 171.728 27.2913C175.586 27.2913 179.443 27.2913 183.286 27.2913C183.542 27.2913 183.799 27.2913 184.04 27.2913C184.411 27.3056 184.482 27.3625 184.468 27.7468C184.453 28.4015 184.581 29.0563 184.368 29.6968C183.784 29.8391 183.172 29.7537 182.589 29.7537C178.077 29.768 173.55 29.7537 169.038 29.7537C168.697 29.7537 168.341 29.8107 168.014 29.6968C167.857 29.4975 167.914 29.2698 167.914 29.0563C167.914 24.2453 167.914 19.4486 167.914 14.6377C167.914 14.5381 167.914 14.4527 167.914 14.353C167.928 13.8833 167.957 13.8549 168.384 13.8264C168.512 13.8264 168.64 13.8264 168.768 13.8264C173.721 13.8264 178.689 13.8264 183.642 13.8264C184.439 13.8264 184.496 13.741 184.482 14.6377C184.482 15.0505 184.482 15.4633 184.482 15.876C184.468 16.2603 184.439 16.2888 184.026 16.2888C183.272 16.303 182.503 16.2888 181.749 16.2888C178.432 16.2888 175.116 16.2888 171.8 16.2888C171.515 16.2888 171.23 16.2888 170.946 16.303C170.775 16.3173 170.661 16.4169 170.633 16.5877C170.618 16.6446 170.618 16.7158 170.618 16.7727C170.618 17.9114 170.618 19.0501 170.618 20.1888C170.618 20.5162 170.689 20.5731 171.003 20.5873C171.259 20.6016 171.515 20.5873 171.757 20.5873C175.358 20.5873 178.959 20.5873 182.56 20.5873C182.816 20.5873 183.073 20.5873 183.315 20.5873C183.642 20.6016 183.727 20.6727 183.742 20.9574C183.756 21.4983 183.756 22.0249 183.742 22.5658C183.742 22.8505 183.642 22.9359 183.315 22.9359C183.058 22.9501 182.802 22.9359 182.56 22.9359C178.931 22.9359 175.287 22.9359 171.657 22.9359C170.476 22.9359 170.618 22.8647 170.604 24.0318C170.604 24.8574 170.604 25.6687 170.604 26.4942C170.633 26.7647 170.647 26.9782 170.661 27.1917Z" fill="currentColor" />
			<path d="M187.016 21.8538C187.016 19.5195 187.016 17.1852 187.016 14.8367C187.016 14.5805 187.016 14.3243 187.03 14.0823C187.044 13.9399 187.129 13.8545 187.272 13.8545C187.457 13.8403 187.656 13.8403 187.841 13.8403C190.688 13.8403 193.52 13.8261 196.367 13.8403C197.762 13.8545 199.143 13.9542 200.495 14.3385C200.893 14.4524 201.278 14.5662 201.662 14.7228C204.21 15.7476 205.647 17.6407 206.003 20.345C206.174 21.5976 206.145 22.8644 205.847 24.1169C205.377 26.0669 204.281 27.533 202.516 28.5008C201.562 29.0275 200.537 29.3264 199.484 29.5257C198.701 29.668 197.919 29.7676 197.136 29.7534C193.947 29.7534 190.759 29.7534 187.571 29.7676C187.514 29.7676 187.443 29.7676 187.386 29.7676C187.158 29.7819 187.03 29.6965 187.03 29.4545C187.03 29.1983 187.03 28.9563 187.03 28.7001C187.016 26.4085 187.016 24.1312 187.016 21.8538ZM189.72 21.7257C189.72 23.2771 189.72 24.8144 189.72 26.3658C189.72 26.5509 189.72 26.7501 189.748 26.9352C189.763 27.0063 189.862 27.106 189.933 27.106C190.147 27.1344 190.375 27.1344 190.588 27.1344C192.424 27.1344 194.246 27.1344 196.082 27.1344C196.709 27.1344 197.349 27.1202 197.975 27.0633C198.986 26.9779 199.968 26.7644 200.893 26.3231C202.146 25.7253 202.929 24.7717 203.256 23.4195C203.413 22.7647 203.427 22.11 203.413 21.441C203.341 19.0925 202.217 17.6122 199.968 16.9005C199.854 16.8578 199.726 16.8294 199.598 16.8009C198.644 16.5731 197.677 16.445 196.694 16.445C194.616 16.445 192.524 16.445 190.446 16.445C190.289 16.445 190.133 16.445 189.976 16.4593C189.834 16.4735 189.748 16.5589 189.734 16.7013C189.72 16.9148 189.72 17.1425 189.72 17.356C189.72 18.822 189.72 20.2739 189.72 21.7257Z" fill="currentColor" />
			<path d="M211.44 16.3176C211.397 16.4599 211.34 16.5453 211.34 16.6307C211.326 17.8264 211.326 19.0362 211.34 20.2318C211.34 20.545 211.411 20.6019 211.739 20.6161C211.995 20.6304 212.251 20.6161 212.493 20.6161C216.194 20.6161 219.895 20.6161 223.581 20.6161C224.506 20.6161 224.435 20.5734 224.435 21.4986C224.435 21.8829 224.435 22.253 224.435 22.6373C224.435 22.8793 224.293 22.9789 224.079 22.9789C223.823 22.9789 223.567 22.9789 223.325 22.9789C219.724 22.9789 216.123 22.9789 212.522 22.9789C212.265 22.9789 212.009 22.9789 211.767 22.9789C211.426 22.9931 211.354 23.0358 211.354 23.349C211.354 24.5446 211.354 25.7544 211.354 26.9501C211.354 27.1351 211.44 27.249 211.639 27.249C211.924 27.2632 212.209 27.2632 212.493 27.2632C216.45 27.2632 220.393 27.2632 224.35 27.2632C225.275 27.2632 225.218 27.2347 225.218 28.1457C225.218 28.5869 225.218 29.0281 225.204 29.4694C225.204 29.6117 225.104 29.6971 224.962 29.7114C224.748 29.7256 224.521 29.7256 224.293 29.7256C219.368 29.7256 214.429 29.7256 209.504 29.7256C208.593 29.7256 208.65 29.7968 208.65 28.8431C208.65 24.1318 208.65 19.4205 208.65 14.7092C208.65 14.5526 208.65 14.3961 208.65 14.2395C208.664 13.8837 208.721 13.8267 209.12 13.8125C209.305 13.8125 209.504 13.8125 209.689 13.8125C214.5 13.8125 219.297 13.8125 224.108 13.8125C224.264 13.8125 224.421 13.8125 224.577 13.8125C225.189 13.8267 225.204 13.8267 225.204 14.453C225.204 15.0224 225.175 15.5917 225.161 16.1468C224.592 16.4172 223.98 16.2607 223.396 16.2607C219.724 16.2749 216.066 16.2749 212.394 16.2749C212.066 16.3176 211.753 16.3176 211.44 16.3176Z" fill="currentColor" />
			<path d="M227.809 29.754C227.638 29.4836 227.695 29.2558 227.695 29.0423C227.695 24.2314 227.695 19.4347 227.695 14.6238C227.695 14.4672 227.695 14.3106 227.709 14.1541C227.724 13.969 227.823 13.8552 228.008 13.8552C228.478 13.8409 228.962 13.8552 229.432 13.8409C229.716 13.8409 229.887 14.0117 230.086 14.1825C230.912 14.88 231.723 15.5774 232.549 16.2606C236.022 19.207 239.481 22.1533 242.953 25.0854C243.139 25.242 243.324 25.5551 243.551 25.484C243.864 25.3701 243.708 24.9858 243.708 24.7296C243.722 21.4132 243.722 18.0968 243.708 14.7803C243.708 13.7698 243.694 13.8409 244.619 13.8409C245.089 13.8409 245.572 13.8409 246.042 13.8409C246.256 13.8409 246.398 13.9406 246.412 14.1825C246.426 14.4103 246.412 14.6238 246.412 14.8515C246.412 19.4916 246.412 24.146 246.412 28.7861C246.412 29.0423 246.398 29.2843 246.398 29.5405C246.398 29.6544 246.298 29.7255 246.213 29.7255C245.644 29.7398 245.074 29.754 244.505 29.7255C244.249 29.7113 244.078 29.4693 243.893 29.2985C242.156 27.8325 240.42 26.3522 238.683 24.8861C236.178 22.7654 233.673 20.6303 231.168 18.5095C231.068 18.4241 230.983 18.3387 230.883 18.2676C230.784 18.1964 230.713 18.0683 230.556 18.1252C230.385 18.1822 230.414 18.3245 230.414 18.4384C230.4 18.6946 230.4 18.9508 230.4 19.1927C230.4 22.3241 230.4 25.4555 230.4 28.5726C230.4 28.8288 230.4 29.085 230.4 29.327C230.385 29.6971 230.371 29.7256 230.029 29.7398C229.275 29.7683 228.521 29.754 227.809 29.754Z" fill="currentColor" />
			<path d="M148.684 29.7529C147.702 29.7529 146.863 29.8098 146.037 29.7102C145.909 29.4682 145.952 29.2405 145.952 29.027C145.952 24.2587 145.952 19.4763 145.952 14.708C145.952 13.8113 145.937 13.8967 146.848 13.8256C147.645 13.7686 148.215 14.0533 148.798 14.5515C152.869 18.0529 156.983 21.5117 161.082 24.9846C161.31 25.1839 161.509 25.4401 161.836 25.5113C162.149 25.2266 161.979 24.8708 161.979 24.5434C161.993 21.2555 161.993 17.9675 161.993 14.6796C161.993 13.7402 162.021 13.8398 162.804 13.8398C163.317 13.8398 163.815 13.8398 164.327 13.8398C164.555 13.8398 164.669 13.9679 164.683 14.1956C164.683 14.3522 164.683 14.5088 164.683 14.6653C164.683 19.4763 164.683 24.273 164.683 29.0839C164.683 29.2689 164.669 29.454 164.655 29.6817C164.057 29.824 163.459 29.7386 162.861 29.7529C162.69 29.7529 162.562 29.6532 162.448 29.5536C162.249 29.397 162.064 29.2262 161.865 29.0697C157.751 25.5682 153.624 22.081 149.51 18.5796C149.339 18.4372 149.168 18.2949 148.998 18.1668C148.898 18.0956 148.741 18.1668 148.727 18.2949C148.713 18.5796 148.699 18.8642 148.699 19.1489C148.699 22.3087 148.699 25.4686 148.699 28.6284C148.684 28.9558 148.684 29.2974 148.684 29.7529Z" fill="currentColor" />
			<path d="M68.2223 29.7392C67.6672 29.8531 67.0979 29.7819 66.5285 29.7819C66.2154 29.7819 66.0304 29.5399 65.8169 29.3549C64.4362 28.1878 63.0698 27.0206 61.7034 25.8535C58.8851 23.4622 56.0811 21.0568 53.2629 18.6655C53.0494 18.4805 52.8217 18.3097 52.5939 18.1389C52.5085 18.0677 52.3946 18.1531 52.3946 18.2385C52.3662 18.5232 52.3662 18.8079 52.3662 19.0925C52.3662 22.3235 52.3662 25.5403 52.3662 28.7713C52.3662 29.0845 52.4231 29.3976 52.295 29.7392C52.1527 29.7534 51.9961 29.7961 51.8395 29.7961C51.1563 29.7819 50.4589 29.8673 49.7757 29.7392C49.5479 29.0702 49.676 28.3728 49.676 27.6896C49.6618 23.3626 49.676 19.0214 49.6618 14.6944C49.6618 13.7977 49.6476 13.8404 50.4731 13.8546C51.8538 13.8688 51.3983 13.6696 52.4943 14.5947C56.5651 18.0535 60.6216 21.5265 64.6924 24.9852C64.9344 25.1987 65.1194 25.5546 65.5322 25.4976C65.6888 25.1987 65.6176 24.8856 65.6176 24.5867C65.6176 21.3557 65.6176 18.1389 65.6176 14.9079C65.6176 14.6517 65.6176 14.3955 65.6318 14.1535C65.6318 13.9685 65.7457 13.8688 65.9307 13.8688C66.0304 13.8688 66.1158 13.8546 66.2154 13.8688C66.8701 13.9115 67.5391 13.7834 68.1796 13.9542C68.4216 14.5947 68.2935 15.2495 68.2935 15.9042C68.3077 20.2027 68.3077 24.5013 68.2935 28.7998C68.3077 29.0845 68.3647 29.3976 68.2223 29.7392Z" fill="currentColor" />
			<path d="M27.7565 10.0407C27.7565 10.4108 27.7565 10.7951 27.7565 11.1652C27.7565 14.9513 27.7138 18.7517 27.5003 22.5378C27.4006 24.4024 27.2725 26.2527 26.9594 28.1031C26.8455 28.7578 26.7317 29.4126 26.4612 30.0246C26.2193 30.5655 25.9631 30.6651 25.4079 30.5086C24.9382 30.3805 24.5539 30.11 24.1696 29.8254C23.216 29.0994 22.2623 28.3593 21.3229 27.6192C20.2127 26.7367 19.1025 25.84 17.9923 24.9575C17.3375 24.4451 16.6116 24.0608 15.8288 23.8188C15.6437 23.7619 15.4587 23.7049 15.2737 23.6765C14.5762 23.5768 14.0211 23.8188 13.6795 24.4451C13.5087 24.744 13.3948 25.0714 13.281 25.3987C12.5978 27.4341 11.9146 29.4695 11.2171 31.5049C11.0748 31.9177 10.904 32.3305 10.7189 32.8286C10.6193 32.4016 10.6762 32.0458 10.7189 31.7042C11.0178 29.1991 11.2883 26.6797 11.6299 24.1746C11.9715 21.6126 12.3558 19.0506 12.7401 16.4885C12.7828 16.2466 12.8397 15.9904 12.9394 15.7626C13.1956 15.1364 13.6653 14.994 14.2204 15.3499C14.5478 15.5491 14.7897 15.8338 15.0317 16.1327C15.7149 17.0009 16.4124 17.855 17.0956 18.7232C17.9923 19.8619 18.8748 21.0148 19.7857 22.1535C20.5543 23.1214 21.4083 24.0181 22.3477 24.8009C22.5897 25.0002 22.8459 25.1995 23.1163 25.356C23.6857 25.6834 24.0415 25.5695 24.3547 24.9717C24.4828 24.7155 24.5824 24.4451 24.6536 24.1746C25.1233 22.6374 25.5218 21.0717 25.8207 19.4918C26.4328 16.332 27.0306 13.1721 27.6284 9.99805C27.6711 10.0265 27.7138 10.0265 27.7565 10.0407Z" fill="currentColor" />
			<path d="M27.7422 34.1811C26.8028 34.3803 25.8634 34.5084 24.9524 34.7646C22.8459 35.3624 21.0098 36.4442 19.316 37.8106C18.4193 38.5223 17.6079 39.3194 16.8109 40.1164C16.3412 40.5862 15.8714 41.0559 15.4017 41.5256C15.1313 41.796 14.8324 42.0237 14.505 42.2088C13.9215 42.5504 13.3664 42.5219 12.8112 42.1518C12.0142 41.611 11.3594 40.942 10.7758 40.1876C9.52329 38.5508 8.45578 36.8 7.4452 35.0066C5.43827 31.3771 3.84412 27.5482 2.50617 23.6198C1.45288 20.5311 0.712745 17.357 0.285739 14.126C-0.0131654 11.8914 -0.0558712 9.64245 0.057997 7.40779C0.100698 6.45414 0.271502 5.51473 0.726975 4.66072C1.22515 3.70707 2.00799 3.19467 3.08974 3.18043C3.53098 3.1662 3.97222 3.2089 4.41346 3.2943C5.22477 3.4651 5.99338 3.73554 6.762 4.03444C7.70141 4.41875 8.61235 4.85999 9.4806 5.35816C9.66563 5.47203 9.85067 5.60013 10.0072 5.74247C10.0642 5.78517 10.0642 5.9275 10.0357 5.99867C10.0072 6.06984 9.9076 6.14101 9.83644 6.16947C9.6087 6.22641 9.3952 6.14101 9.1817 6.08407C8.12842 5.85633 7.08936 5.5859 6.00761 5.5432C5.5379 5.52896 5.05396 5.52896 4.58426 5.57167C3.58791 5.65707 2.89047 6.19794 2.46347 7.10889C2.16456 7.7494 2.02223 8.4326 1.93682 9.11581C1.76602 10.5676 1.65216 12.0195 1.75179 13.4713C1.89413 15.5209 2.10763 17.5705 2.53463 19.5775C3.23208 22.8369 4.15726 26.011 5.48098 29.0712C6.44886 31.3059 7.54483 33.4694 8.92548 35.5048C9.7368 36.7004 10.7331 37.6967 11.9003 38.5365C12.0996 38.6789 12.3131 38.8212 12.5408 38.9493C13.3948 39.4048 14.2488 39.3905 15.0601 38.8781C15.6153 38.5223 16.1277 38.0953 16.6543 37.6825C18.9886 35.8606 21.5933 34.6223 24.5254 34.1526C25.593 33.996 26.6747 34.0387 27.7422 34.1811Z" fill="#C7491F" />
			<path d="M256.319 29.6541C256.319 29.3268 256.319 28.9851 256.319 28.6435C256.319 24.9428 256.319 21.2563 256.319 17.5556C256.319 17.3279 256.319 17.1144 256.319 16.8866C256.304 16.5023 256.276 16.4596 255.863 16.4596C253.714 16.4596 251.565 16.4596 249.415 16.4596C249.159 16.4596 248.903 16.4596 248.661 16.4596C248.419 16.4596 248.333 16.3173 248.333 16.1038C248.333 15.4775 248.333 14.837 248.333 14.2107C248.333 13.983 248.462 13.8691 248.689 13.8691C248.874 13.8691 249.074 13.8691 249.259 13.8691C254.881 13.8691 260.503 13.8691 266.125 13.8691C266.382 13.8691 266.624 13.8691 266.894 13.8691C266.937 14.0399 266.994 14.1538 266.994 14.2677C267.008 14.9651 266.994 15.6483 266.994 16.2888C266.766 16.5308 266.538 16.4739 266.325 16.4739C264.247 16.4739 262.154 16.4739 260.076 16.4739C259.763 16.4739 259.45 16.4739 259.108 16.4739C258.966 16.8439 259.009 17.1856 259.009 17.5129C259.009 21.0571 259.009 24.587 258.994 28.1311C258.994 28.6578 259.094 29.1987 258.895 29.7111C258.368 29.8392 257.827 29.7538 257.301 29.768C257.002 29.7538 256.674 29.8107 256.319 29.6541Z" fill="currentColor" />
			<path d="M124.715 27.1492C125.057 27.2773 125.398 27.2204 125.754 27.2204C129.512 27.2204 133.27 27.2204 137.041 27.2204C137.326 27.2204 137.611 27.2204 137.895 27.2489C137.981 27.2489 138.08 27.32 138.08 27.4339C138.08 28.1313 138.095 28.8288 138.08 29.512C138.08 29.6543 137.967 29.7255 137.824 29.7397C137.668 29.754 137.511 29.754 137.355 29.754C132.387 29.754 127.434 29.754 122.466 29.754C122.338 29.754 122.224 29.7397 122.053 29.7255C121.897 29.3981 121.968 29.0565 121.954 28.7149C121.954 24.1032 121.954 19.4916 121.954 14.8657C121.954 14.638 121.954 14.4244 121.954 14.1967C121.954 13.9832 122.039 13.8266 122.281 13.8266C122.95 13.8266 123.605 13.8124 124.274 13.8266C124.573 13.8266 124.644 13.9263 124.658 14.2394C124.672 14.4956 124.658 14.7518 124.658 14.9938C124.658 18.6945 124.658 22.3952 124.658 26.0959C124.644 26.466 124.573 26.8219 124.715 27.1492Z" fill="currentColor" />
			<path d="M7.87188 8.48879C8.39852 8.54573 8.9394 8.63113 9.46604 8.64536C11.658 8.73076 13.7219 8.18989 15.6861 7.22201C17.6218 6.28259 19.5291 5.28625 21.4507 4.34683C23.7423 3.22239 26.0623 2.14064 28.5105 1.34356C30.5317 0.688817 32.5955 0.247578 34.7021 0.0198418C35.243 -0.0370923 35.7838 0.0340753 36.2962 0.162177C37.136 0.37568 37.7623 0.873853 38.1608 1.64246C38.659 2.59611 38.8156 3.60669 38.6448 4.67421C38.417 6.14026 38.0327 7.57785 37.5773 8.98697C36.951 10.937 36.282 12.887 35.6415 14.8369C35.5988 14.9793 35.5703 15.1359 35.3568 15.264C35.2714 15.0077 35.3141 14.78 35.3426 14.5523C35.4849 13.3567 35.67 12.1753 35.7981 10.9797C35.9546 9.47091 36.097 7.96215 36.2251 6.4534C36.2535 6.16873 36.2251 5.88406 36.1824 5.59939C35.9689 4.2472 35.1433 3.40742 33.7911 3.12275C32.6525 2.86655 31.528 2.96618 30.4178 3.22239C27.9554 3.79173 25.5642 4.61727 23.2156 5.54245C20.9525 6.42493 18.6894 7.33588 16.412 8.18989C14.6613 8.84463 12.8251 9.2147 10.9463 9.172C9.99267 9.15777 9.06749 8.98697 8.14231 8.745C8.02844 8.71653 7.92881 8.64536 7.81494 8.58843C7.82917 8.57419 7.85765 8.53149 7.87188 8.48879Z" fill="#C7491F" />
			<path d="M142.692 21.8545C142.692 24.1318 142.692 26.4092 142.692 28.6866C142.692 28.9143 142.692 29.1278 142.692 29.3555C142.678 29.6971 142.635 29.7683 142.322 29.7683C141.653 29.7825 140.998 29.7683 140.329 29.7683C140.087 29.7683 140.002 29.6402 140.002 29.4125C140.002 29.2274 140.002 29.0282 140.002 28.8431C140.002 24.1603 140.002 19.4917 140.002 14.8089C140.002 13.7698 139.931 13.8552 140.984 13.8552C141.368 13.8552 141.738 13.8552 142.123 13.8552C142.678 13.8695 142.678 13.8695 142.692 14.4673C142.692 14.6523 142.692 14.8516 142.692 15.0366C142.692 17.2997 142.692 19.5771 142.692 21.8545Z" fill="currentColor" />
			<path d="M23.8706 36.8145C24.5965 36.7433 25.2228 36.9568 25.8064 37.4692C26.2049 37.8393 26.4896 38.2947 26.76 38.7502C26.9308 39.0491 27.1159 39.348 27.3009 39.6327C27.4005 39.7893 27.5429 39.9316 27.6852 40.0455C27.9556 40.259 28.283 40.2447 28.5534 40.0312C28.8808 39.7608 29.0659 39.405 29.2509 39.0349C30.2045 37.1561 31.0728 35.2203 31.8556 33.2561C32.0549 32.7579 32.2399 32.2597 32.4534 31.7615C32.5246 31.5907 32.61 31.4342 32.8093 31.3203C32.5958 32.1032 32.4107 32.9002 32.183 33.6831C31.6421 35.5904 31.0585 37.4977 30.3042 39.3338C30.0337 39.9743 29.7491 40.6006 29.3932 41.1984C29.2367 41.4688 29.0374 41.7108 28.7385 41.8674C27.9983 42.2517 27.187 42.0239 26.7885 41.298C26.6461 41.056 26.5607 40.7856 26.4469 40.5152C26.2761 40.1166 26.1053 39.7039 25.9202 39.3053C25.5217 38.3944 24.9239 37.64 24.0841 37.0707C24.0129 37.0137 23.8706 36.9568 23.8706 36.8145Z" fill="#C7491F" />

	</g>
	</symbol>
	<symbol id="svg-logoDark" viewBox="0 0 1879 303">
		<g>
			
			<path d="M861 98H858V101V204.736V207.736H861H966.448H969.448V204.736V194.807V191.807H966.448H875.006V101V98H872.006H861ZM1001.95 101V98H998.948H987.942H984.942V101V204.736V207.736H987.942H998.948H1001.95V204.736V101ZM1040.33 98.7121L1039.5 98H1038.39H1029.92H1026.92V101V204.736V207.736H1029.92H1040.92H1043.92V204.736V123.039L1142.94 207.023L1143.78 207.736H1144.88H1153.21H1156.21V204.736V101V98H1153.21H1142.36H1139.36V101V182.697L1040.33 98.7121ZM1181.31 204.736V207.736H1184.31H1292.73H1295.73V204.736V195.399V192.399H1292.73H1198.32V160.165H1287.53H1290.53V157.165V148.57V145.57H1287.53H1198.32V113.336H1292.73H1295.73V110.336V101V98H1292.73H1184.31H1181.31V101V204.736ZM1318.37 98H1315.37V101V204.736V207.736H1318.37H1380.09C1404.43 207.736 1421.42 202.205 1432.34 192.305C1443.31 182.355 1447.64 168.455 1447.64 152.868C1447.64 137.281 1443.31 123.381 1432.34 113.43C1421.42 103.53 1404.43 98 1380.09 98H1318.37ZM1467.29 204.736V207.736H1470.29H1578.72H1581.72V204.736V195.399V192.399H1578.72H1484.3V160.165H1573.51H1576.51V157.165V148.57V145.57H1573.51H1484.3V113.336H1578.72H1581.72V110.336V101V98H1578.72H1470.29H1467.29V101V204.736ZM1614.77 98.7121L1613.93 98H1612.83H1604.35H1601.35V101V204.736V207.736H1604.35H1615.36H1618.36V204.736V123.038L1717.38 207.023L1718.22 207.736H1719.32H1727.65H1730.65V204.736V101V98H1727.65H1716.79H1713.79V101V182.697L1614.77 98.7121ZM1746.38 111.225V114.225H1749.38H1802.59V204.736V207.736H1805.59H1816.45H1819.45V204.736V114.225H1872.67H1875.67V111.225V101V98H1872.67H1749.38H1746.38V101V111.225ZM1380.09 191.362H1332.37V114.225H1380.09C1400.25 114.225 1412.81 118.603 1420.33 125.334C1427.77 132.001 1430.78 141.454 1430.78 152.868C1430.78 164.281 1427.77 173.693 1420.33 180.323C1412.82 187.019 1400.26 191.362 1380.09 191.362Z" fill="#191919" stroke="#191919" stroke-width="6" />
			<path d="M162.62 256.776C175.82 256.776 184.48 266.314 190.251 272.088C196.411 278.25 203.627 276.664 209.259 268.216C215.419 256.424 226.858 236.889 234.25 214.889L251.85 121.788C250.457 111.435 242.184 65.033 238.403 55.0784C234.423 44.3275 225.666 39.7484 214.123 39.5493C182.878 38.952 153.822 47.1148 126.557 62.0466C112.228 67.9332 88.7753 83.2098 74.4463 89.5807C83.2029 81.0198 102.078 65.6756 112.228 58.2639C156.108 26.2223 196.212 5.37195 241.587 0.3283C257.708 -1.46352 267.459 3.91193 271.24 20.0383C275.221 36.9611 258.713 98.7324 251.85 121.788L234.25 214.889C228.266 236.713 222.458 259.592 217.531 272.088C212.603 284.584 211.723 287.927 206.619 295.847C202.866 301.67 192.507 301.655 189.586 294.609C183.387 279.656 176.7 265.048 162.62 256.776Z" fill="#C7491F" />
			<path d="M67.0511 48.1103C27.6147 48.1103 20.4817 59.8567 17.2974 90.1186C12.7201 134.317 22.7649 179.823 34.2961 209.592C43.5268 233.422 55.6765 246.007 67.6481 257.355C86.4109 273.283 96.9033 269.102 113.422 258.152C137.303 242.025 163.573 241.428 190.639 246.007C165.364 246.804 144.269 257.156 125.362 273.283C119.591 278.26 114.019 283.635 108.844 289.011C91.1319 307.128 88.7437 307.327 71.2304 288.613C41.4971 252.947 24.0639 216.143 12.9191 173.737C3.16741 137.104 -1.40993 99.675 0.381205 61.6485C1.97332 30.5902 13.8989 23.0193 43.3531 34.1684C51.7117 37.3539 60.6826 40.943 68.6432 45.1239C67.8472 45.9203 67.4491 47.1149 67.0511 48.1103Z" fill="#C7491F" />
			<path d="M195.243 64.4373C195.27 113.757 194.325 213.239 182.489 214.458C176.748 215.05 169.663 208.879 165.992 206.255C151.286 195.561 139.366 184.276 124.66 173.582C121.643 171.491 118.47 169.817 115.119 168.361C104.451 163.856 97.6592 164.999 93.9893 175.984C89.5337 189.053 86.523 197.626 82.3061 211.07C81.11 214.996 77.3537 225.312 74.547 232.841C75.3168 218.951 78.3818 200.166 79.7659 186.413C82.2116 163.545 85.6471 140.575 89.103 117.803C89.6848 113.74 90.7248 106.628 95.5036 106.135C99.5864 105.715 103.755 110.489 106.3 113.829C117.728 127.663 128.208 141.994 139.438 155.848C143.791 161.204 148.52 166.321 153.604 171.001C162.638 179.077 168.535 183.865 172.362 172.463C175.738 162.508 179.195 148.159 181.322 137.732C186.068 115.828 190.716 86.5194 195.243 64.4373Z" fill="#191919" />
			<path d="M363.407 98.7154L362.566 97.999H361.461H353H350V100.999V204.999V207.999H353H363.985H366.985V204.999V123.096L465.804 207.283L466.645 207.999H467.749H476.062H479.062V204.999V100.999V97.999H476.062H465.226H462.226V100.999V182.902L363.407 98.7154ZM501.626 204.999V207.999H504.626H612.844H615.844V204.999V195.639V192.639H612.844H518.611V160.308H607.648H610.648V157.308V148.69V145.69H607.648H518.611V113.359H612.844H615.844V110.359V100.999V97.999H612.844H504.626H501.626V100.999V204.999ZM734.288 99.7571L733.488 97.999H731.557H719.236H717.304L716.505 99.7571L677.916 184.613L641.985 99.8284L641.21 97.999H639.223H627.792H623.286L625.025 102.157L668.52 206.157L669.29 207.999H671.287H683.905H685.836L686.636 206.241L725.466 120.883L764.155 206.238L764.953 207.999H766.887H779.654H781.653L782.423 206.153L825.769 102.153L827.501 97.999H823H811.57H809.583L808.807 99.8284L772.877 184.613L734.288 99.7571Z" fill="#191919" stroke="#191919" stroke-width="6" />

		</g>
	</symbol>
	
	<symbol id="svg-rarr" viewBox="0 0 48 12">
		<g>
 			 <path d="M48 6L38 0.226495L38 11.7735L48 6ZM39 5L1.99002e-07 4.99999L-1.99002e-07 6.99999L39 7L39 5Z" fill="currentColor" />
		</g>
	</symbol>
	<symbol id="svg-arDown" viewBox="0 0 12 190">
		<g>
 		<path d="M6 190L11.7735 180L0.226497 180L6 190ZM7 181L6.99999 -4.37114e-08L4.99999 4.37114e-08L5 181L7 181Z" fill="currentColor" />
		</g>
	</symbol>
	<symbol id="svg-metro" viewBox="0 0 28 23">
		<g>
 			 <path d="M8.4369 5.13279C8.01718 3.73624 6.87787 3.8893 6.0989 4.53975C4.18002 6.28061 1.68148 9.93456 3.28056 15.196C4.61977 19.6534 10.1922 22.5039 10.1922 22.5039H3.69622C3.69622 22.5039 0.342052 18.8117 0.0422107 14.4691C-0.337554 8.97869 1.90132 5.51601 4.4998 3.25869C6.93836 1.13519 9.25703 0.503906 9.25703 0.503906L14 15.7664L18.743 0.503906C18.743 0.503906 21.0616 1.13519 23.5002 3.25869C26.0987 5.51601 28.3376 8.97869 27.9578 14.4691C27.6579 18.8117 24.3038 22.5039 24.3038 22.5039H17.8078C17.8078 22.5039 23.3798 19.6534 24.7194 15.196C26.3185 9.93516 23.82 6.28121 21.9011 4.53975C21.1215 3.8893 19.9822 3.73624 19.5631 5.13279C18.1239 9.59018 14.0006 22.3615 14.0006 22.3615C14.0006 22.3615 9.87724 9.58592 8.43808 5.13279H8.4369Z" fill="currentColor" />
		</g>
	</symbol>
	<symbol id="svg-play" viewBox="0 0 15 16">
		<g>
			
			<path d="M7.32943 0.666016C3.28559 0.666016 -0.00390625 3.95551 -0.00390625 7.99935C-0.00390625 12.0432 3.28559 15.3327 7.32943 15.3327C11.3733 15.3327 14.6628 12.0432 14.6628 7.99935C14.6628 3.95551 11.3733 0.666016 7.32943 0.666016ZM7.32943 1.88824C10.712 1.88824 13.4405 4.61675 13.4405 7.99935C13.4405 11.3819 10.712 14.1105 7.32943 14.1105C3.94683 14.1105 1.21832 11.3819 1.21832 7.99935C1.21832 4.61675 3.94683 1.88824 7.32943 1.88824ZM4.88498 3.79796V12.2007L5.80165 11.666L11.3017 8.53407L12.2183 7.99935L11.3017 7.46463L5.80165 4.33268L4.88498 3.79796ZM6.10721 5.89865L9.75478 7.99935L6.10721 10.1V5.89865Z" fill="currentColor" />
			
		</g>
	</symbol>

</svg>
