<svg width="21" height="21" viewBox="0 0 21 21" fill="none" xmlns="http://www.w3.org/2000/svg">
<path d="M20.9032 10.4037C20.2262 10.4054 19.5557 10.3409 18.8913 10.2096C18.2273 10.0784 17.5826 9.88313 16.9569 9.62446C16.3313 9.36524 15.7374 9.04751 15.1752 8.67072C14.6125 8.29337 14.0924 7.86516 13.615 7.38499C13.1354 6.90758 12.7067 6.38749 12.3298 5.82532C11.953 5.26257 11.6353 4.66867 11.3761 4.0436C11.1169 3.41796 10.9222 2.77321 10.7909 2.10875C10.6597 1.44484 10.5952 0.773829 10.5968 0.0967969C10.5968 0.0705469 10.5875 0.0475781 10.5684 0.0284374C10.5498 0.00984383 10.5268 0 10.5 0C10.4732 0 10.4508 0.00984383 10.4316 0.0284374C10.4125 0.0475781 10.4032 0.0705469 10.4032 0.0967969C10.4048 0.773829 10.3403 1.44484 10.2091 2.10875C10.0784 2.77321 9.88312 3.41796 9.62391 4.0436C9.36469 4.66867 9.04696 5.26257 8.67017 5.82532C8.29337 6.38749 7.8646 6.90758 7.38499 7.38499C6.90758 7.86516 6.38749 8.29337 5.82532 8.67072C5.26257 9.04751 4.66867 9.36524 4.04305 9.62446C3.41796 9.88313 2.77266 10.0784 2.10875 10.2096C1.4443 10.3409 0.773829 10.4054 0.0967969 10.4037C0.0700001 10.4037 0.0470311 10.4131 0.0284374 10.4316C0.00929696 10.4508 0 10.4738 0 10.5C0 10.5268 0.00929696 10.5498 0.0284374 10.5689C0.0470311 10.5875 0.0700001 10.5968 0.0967969 10.5968C0.773829 10.5952 1.4443 10.6597 2.10875 10.7909C2.77266 10.9222 3.41743 11.1174 4.04305 11.3766C4.66867 11.6353 5.26257 11.9536 5.82477 12.3304C6.38749 12.7072 6.90758 13.1354 7.38499 13.6156C7.8646 14.093 8.29337 14.6131 8.67017 15.1752C9.04696 15.738 9.36469 16.3319 9.62391 16.9569C9.88312 17.5826 10.0784 18.2273 10.2091 18.8918C10.3403 19.5557 10.4048 20.2267 10.4032 20.9037C10.4032 20.93 10.4125 20.953 10.4316 20.9721C10.4508 20.9907 10.4732 21 10.5 21C10.5268 21 10.5498 20.9907 10.5684 20.9721C10.5875 20.953 10.5968 20.93 10.5968 20.9037C10.5968 15.2206 15.2201 10.5968 20.9032 10.5968C20.93 10.5968 20.953 10.5875 20.9716 10.5689C20.9907 10.5498 21 10.5268 21 10.5C21 10.4738 20.9907 10.4508 20.9716 10.4316C20.953 10.4131 20.93 10.4037 20.9032 10.4037Z" fill="#C7491F"/>
</svg>
